<?xml version="1.0" encoding="iso-8859-1"?>
<!-- Generator: Adobe Illustrator 19.0.0, SVG Export Plug-In . SVG Version: 6.00 Build 0)  -->
<svg version="1.1" id="Capa_1" xmlns="http://www.w3.org/2000/svg" xmlns:xlink="http://www.w3.org/1999/xlink" x="0px" y="0px"
	 viewBox="0 0 512 512" style="enable-background:new 0 0 512 512;" xml:space="preserve">
<g>
	<g>
		<g>
			<path d="M19.204,360.744l-0.05,0.05c-0.01,24.851,9.06,48.752,25.541,67.302l0.04,0.04l11.18-9.92l0.01-0.021l-0.01-0.06
				c-14.03-15.821-21.761-36.181-21.761-57.342L19.204,360.744z"/>
			<path d="M199.427,424.58c14.55-17.97,22.564-40.621,22.564-63.784c0-7.551-0.835-15.085-2.481-22.39l-14.633,3.299
				c1.403,6.224,2.114,12.646,2.114,19.091c0,19.737-6.826,39.037-19.221,54.345L199.427,424.58z"/>
			<path d="M183.52,301.587c3.149,3.347,6.051,6.967,8.625,10.762l12.413-8.42c-3.019-4.451-6.422-8.697-10.113-12.621
				L183.52,301.587z"/>
			<path d="M196.895,320.223c2.158,4.052,4.003,8.304,5.483,12.64l14.195-4.848c-1.739-5.092-3.906-10.087-6.44-14.846
				L196.895,320.223z"/>
			<path d="M38.37,360.796c0,45.326,36.875,82.201,82.201,82.201c45.326,0,82.201-36.875,82.201-82.201
				c0-20.257-7.433-39.717-20.93-54.799l-11.178,10.004c11.031,12.325,17.107,28.234,17.107,44.794c0,37.055-30.146,67.2-67.2,67.2
				c-37.054,0-67.2-30.146-67.2-67.2c0-37.054,30.146-67.199,67.2-67.199c14.602,0,28.485,4.601,40.149,13.306l8.972-12.021
				c-14.275-10.653-31.262-16.285-49.122-16.285C75.245,278.595,38.37,315.47,38.37,360.796z"/>
			<path d="M78.656,360.794l-14.951-0.05l-0.05,0.05c0,8.689,1.91,17.051,5.68,24.82c3.6,7.421,8.88,14.091,15.271,19.302
				l0.04,0.029l9.46-11.58l0.01-0.01l-0.02-0.06C84.286,385.274,78.656,373.433,78.656,360.794z"/>
			<path d="M133.079,320.774c4.048,1.264,7.875,3.137,11.374,5.567l8.559-12.318c-4.753-3.303-9.956-5.849-15.464-7.567
				L133.079,320.774z"/>
			<path d="M173.137,382.658c2.888-6.937,4.352-14.292,4.352-21.862c0-14.711-5.593-28.668-15.749-39.303l-10.849,10.359
				c7.478,7.831,11.596,18.11,11.596,28.943c0,5.581-1.077,10.996-3.2,16.099L173.137,382.658z"/>
			<path d="M109.108,305.034l3.007,14.695c4.129-0.846,8.484-1.062,12.673-0.643l1.491-14.927
				C120.595,303.594,114.711,303.886,109.108,305.034z"/>
			<path d="M449.537,418.921c15.526-15.526,24.077-36.169,24.077-58.125s-8.55-42.598-24.077-58.125
				c-15.526-15.525-36.168-24.075-58.124-24.075c-21.958,0-42.6,8.55-58.125,24.075c-15.526,15.526-24.077,36.169-24.077,58.126
				c0,21.955,8.55,42.597,24.077,58.124c14.3,14.3,33.287,22.804,53.461,23.944l0.847-14.977c-16.49-0.932-32.009-7.883-43.7-19.574
				c-12.692-12.693-19.683-29.568-19.683-47.518s6.99-34.826,19.683-47.519c12.691-12.692,29.567-19.683,47.519-19.683
				c17.95,0,34.825,6.989,47.518,19.683c12.692,12.692,19.683,29.568,19.683,47.518c0,17.95-6.99,34.825-19.683,47.518
				c-10.343,10.343-23.438,16.911-37.868,18.992l2.142,14.846C420.865,439.604,436.887,431.571,449.537,418.921z"/>
			<path d="M352.392,382.275l-13.137,7.24c2.695,4.89,6.081,9.389,10.065,13.374c9.2,9.199,20.857,15.024,33.709,16.846
				l2.104-14.852c-9.607-1.36-18.324-5.718-25.206-12.6C356.941,389.297,354.406,385.93,352.392,382.275z"/>
			<path d="M390.463,301.274l0.212,14.998c4.299-0.059,8.585,0.479,12.711,1.627l4.019-14.451
				C401.903,301.918,396.192,301.187,390.463,301.274z"/>
			<path d="M379.104,302.548c-5.62,1.183-11.024,3.167-16.064,5.9l7.152,13.186c3.762-2.041,7.799-3.523,11.998-4.406
				L379.104,302.548z"/>
			<path d="M446.857,382.506c2.711-6.932,4.085-14.222,4.085-21.671c0-15.926-6.192-30.889-17.437-42.134
				c-4.544-4.543-9.737-8.292-15.435-11.145l-6.716,13.412c4.256,2.131,8.14,4.938,11.544,8.34
				c8.41,8.411,13.042,19.607,13.042,31.526c0,5.57-1.028,11.022-3.055,16.206L446.857,382.506z"/>
			<path d="M316.254,403.691l-13.021,7.449c12.243,21.401,31.781,37.607,55.013,45.635l4.898-14.178
				C343.345,435.758,326.693,421.94,316.254,403.691z"/>
			<path d="M492.937,360.796c0-35.792-19.176-69.327-50.044-87.521l-7.616,12.922c26.313,15.51,42.658,44.093,42.659,74.599H492.937
				z"/>
			<path d="M418.08,262.812l-3.931,14.477c4.423,1.201,8.787,2.771,12.969,4.669l6.196-13.66
				C428.403,266.069,423.277,264.224,418.08,262.812z"/>
			<path d="M391.413,259.273v15c4.608,0,9.235,0.365,13.75,1.085l2.363-14.813C402.232,259.7,396.81,259.273,391.413,259.273z"/>
			<path d="M512,360.797c0-32.21-12.543-62.493-35.319-85.27c-22.776-22.775-53.058-35.318-85.268-35.318
				c-1.056,0-2.109,0.015-3.16,0.042l-11.257-1.619v-30.886c22.524-4.154,43.113-15.2,59.361-32.127l-10.821-10.387
				c-18.181,18.94-42.646,29.37-68.891,29.369h-35.355l74.195-133.445c5.328-9.584,15.451-15.537,26.416-15.537
				c16.666,0,30.224,13.559,30.224,30.225v23.279c0,20.018-6.125,39.178-17.714,55.412l12.208,8.715
				c11.591-16.237,18.45-35.003,20.104-54.747h37.528V70.959h-37.393c-2.443-22.649-21.67-40.342-44.958-40.342
				c-16.408,0-31.553,8.908-39.526,23.249l-86.588,155.735h60.859c0.002,0,0.002,0,0.004,0c1.79,0,3.572-0.045,5.347-0.129v27.003
				l-61.523-8.847c-2.428-5.355-5.763-10.194-9.949-14.388c-4.48-4.48-9.71-8-15.521-10.46c-6.02-2.551-12.42-3.841-19.011-3.841
				s-12.99,1.29-19.011,3.841c-5.81,2.46-11.03,5.979-15.521,10.46c-4.186,4.194-7.521,9.034-9.949,14.39l-87.749,12.623
				c-1.06-0.028-2.124-0.043-3.191-0.043c-31.859,0-61.904,12.309-84.603,34.658C13.295,297.192,0.522,326.993,0,358.779
				l14.998,0.246c0.94-57.244,48.3-103.816,105.573-103.816c58.221,0,105.587,47.366,105.587,105.586
				s-47.366,105.588-105.587,105.588c-53.669,0-98.761-40.141-104.888-93.371L0.78,374.726
				c6.999,60.805,58.498,106.657,119.791,106.657c53.294,0,98.616-34.754,114.512-82.787h41.758
				c5.819,17.698,15.749,33.912,29.304,47.468c22.776,22.775,53.058,35.318,85.268,35.318c31.427,0,61.171-12.015,83.755-33.83
				l-10.422-10.789c-19.772,19.101-45.815,29.619-73.332,29.619c-28.203,0-54.718-10.982-74.66-30.926
				c-19.943-19.942-30.926-46.458-30.926-74.661c0-28.203,10.982-54.718,30.926-74.659c19.943-19.943,46.459-30.926,74.661-30.926
				s54.718,10.982,74.66,30.926c19.943,19.942,30.926,46.458,30.926,74.661c0,23.776-8.11,47.073-22.838,65.599l11.742,9.334
				C502.733,414.561,512,387.95,512,360.797z M467.125,85.96h22.125v7.541h-22.125V85.96z M232.071,223.848
				c6.4-6.39,14.891-9.91,23.921-9.91s17.521,3.521,23.921,9.91c6.39,6.4,9.91,14.891,9.91,23.921c0,9.03-3.52,17.531-9.91,23.932
				c-6.4,6.38-14.891,9.899-23.921,9.909c-9.03-0.01-17.521-3.529-23.921-9.909c-6.39-6.4-9.91-14.901-9.91-23.932
				C222.16,238.74,225.68,230.24,232.071,223.848z M306.145,275.527c-22.776,22.775-35.319,53.058-35.319,85.268
				c0,7.738,0.732,15.363,2.147,22.802h-33.986c1.419-7.386,2.172-15.007,2.172-22.801c0-50.269-30.923-93.445-74.742-111.525
				l40.948-5.891c-0.129,1.453-0.203,2.915-0.203,4.389c0,6.59,1.29,12.99,3.84,19.012c2.46,5.81,5.98,11.039,10.46,15.521
				c4.49,4.48,9.71,8,15.521,10.46c6.02,2.55,12.42,3.84,19.011,3.84s12.99-1.29,19.011-3.84c5.81-2.46,11.04-5.979,15.521-10.46
				c4.48-4.481,8-9.71,10.46-15.521c2.55-6.021,3.84-12.421,3.84-19.012c0-1.474-0.075-2.937-0.203-4.39l40.816,5.869
				C330.917,255.232,317.584,264.089,306.145,275.527z"/>
			
				<rect x="248.508" y="225.431" transform="matrix(0.7071 0.7071 -0.7071 0.7071 250.1796 -108.4565)" width="15" height="44.668"/>
			<rect x="248.488" y="309.38" width="15" height="15"/>
			<rect x="248.488" y="334.381" width="15" height="15"/>
			<rect x="365.848" y="104.217" transform="matrix(-0.874 -0.4859 0.4859 -0.874 630.9545 446.3918)" width="15" height="74.362"/>
			<path d="M391.104,83.169c2.804,3.476,5.239,7.258,7.237,11.241l13.408-6.725c-2.477-4.939-5.495-9.627-8.97-13.935
				L391.104,83.169z"/>
			<path d="M405.875,167.333c8.733-12.44,13.606-27.036,14.092-42.207l-14.992-0.48c-0.392,12.244-4.326,24.025-11.377,34.069
				l-8.323,11.858l12.277,8.617L405.875,167.333z"/>
			<path d="M419.539,114.082c-0.605-5.499-1.799-10.943-3.548-16.182l-14.229,4.752c1.413,4.229,2.377,8.627,2.866,13.069
				L419.539,114.082z"/>
			<rect x="424.834" y="70.959" width="15.001" height="15"/>
		</g>
	</g>
</g>
<g>
</g>
<g>
</g>
<g>
</g>
<g>
</g>
<g>
</g>
<g>
</g>
<g>
</g>
<g>
</g>
<g>
</g>
<g>
</g>
<g>
</g>
<g>
</g>
<g>
</g>
<g>
</g>
<g>
</g>
</svg>
