<svg id="Layer_1" enable-background="new 0 0 512.018 512.018" height="512" viewBox="0 0 512.018 512.018" width="512" xmlns="http://www.w3.org/2000/svg"><path d="m504.011 252.009h-75.152l-44.37-116.84c-1.179-3.106-4.156-5.16-7.479-5.16h-62.293l-37.714-67.885c-1.411-2.54-4.088-4.115-6.993-4.115h-68c-4.857 0-8.591 4.297-7.924 9.101l8.736 62.899h-67.812c-3.322 0-6.3 2.054-7.479 5.16l-43.658 114.969c-1.569 4.13.508 8.75 4.639 10.318 4.128 1.572 8.751-.508 10.318-4.639l41.7-109.809h230.961l8.734 23h-173.51c-13.321 0-25.381 8.394-30.008 20.886l-2.222 6c-7.735 20.882 7.744 43.114 30.008 43.114h202.315l4.937 13c-128.151 0-118.633-.307-120.854.634l-83.504 35.366h-199.376c-6.035 0-9.923 6.462-7.039 11.801l30.293 56.099c2.099 3.89 6.955 5.339 10.84 3.238 3.888-2.099 5.338-6.952 3.238-10.84l-23.92-44.298c201.628 0 188.489.306 190.708-.634l83.504-35.366h195.494l-84.086 170h-313.261l-12.927-23.938c-2.099-3.887-6.953-5.336-10.84-3.238-3.888 2.1-5.338 6.952-3.238 10.84l15.194 28.138c1.396 2.587 4.1 4.199 7.039 4.199h323c3.043 0 5.822-1.726 7.171-4.453l92-186c2.62-5.296-1.226-11.547-7.17-11.547zm-285.035-122-7.778-56h54.105l9.445 17h-37.738c-4.418 0-8 3.582-8 8s3.582 8 8 8h46.626l12.778 23zm45.352 93-12.315-38h73.18l12.315 38zm-72.967-6.859c-5.5-7.9-1.823-14.832.35-20.698 2.313-6.246 8.343-10.442 15.004-10.442h28.479l12.315 38h-43.015c-5.313-.001-10.099-2.501-13.133-6.86zm162.967 6.859-12.315-38h44.288l14.43 38z"/><path d="m368.011 368.009c0-18.196-14.804-33-33-33s-33 14.804-33 33 14.804 33 33 33 33-14.804 33-33zm-50 0c0-9.374 7.626-17 17-17s17 7.626 17 17-7.626 17-17 17-17-7.626-17-17z"/><path d="m210.011 368.009c0-18.196-14.804-33-33-33s-33 14.804-33 33 14.804 33 33 33 33-14.804 33-33zm-50 0c0-9.374 7.626-17 17-17s17 7.626 17 17-7.626 17-17 17-17-7.626-17-17z"/><path d="m63.73 382.118c-2.611-6.38-11.88-6.757-14.78 0-2.408 5.809 2.575 12.124 8.96 10.9 4.856-.946 7.776-6.206 5.82-10.9z"/></svg>