<svg id="Layer_3" enable-background="new 0 0 64 64" height="512" viewBox="0 0 64 64" width="512" xmlns="http://www.w3.org/2000/svg"><path d="m13.143 54.515c.18.301.506.485.857.485s.677-.184.857-.485l6-10c.19-.317.19-.712 0-1.029l-6-10c-.361-.603-1.354-.603-1.715 0l-6 10c-.19.317-.19.712 0 1.029zm.857-18.571 4.834 8.056-4.834 8.056-4.834-8.056z"/><path d="m5 29h2v2h-2z"/><path d="m21 29h2v2h-2z"/><path d="m21 57h2v2h-2z"/><path d="m5 57h2v2h-2z"/><path d="m62 25h-17v-23c0-.552-.448-1-1-1h-24c-.552 0-1 .448-1 1v23h-17c-.552 0-1 .448-1 1v36c0 .552.448 1 1 1h24c.552 0 1-.448 1-1v-23h10v23c0 .552.448 1 1 1h24c.552 0 1-.448 1-1v-36c0-.552-.448-1-1-1zm-37 36h-22v-34h22zm12-35v11h-10v-11c0-.552-.448-1-1-1h-5v-22h22v22h-5c-.552 0-1 .448-1 1zm24 35h-22v-34h22z"/><path d="m49.143 54.515c.18.301.506.485.857.485s.677-.184.857-.485l6-10c.19-.317.19-.712 0-1.029l-6-10c-.361-.603-1.354-.603-1.715 0l-6 10c-.19.317-.19.712 0 1.029zm.857-18.571 4.834 8.056-4.834 8.056-4.834-8.056z"/><path d="m41 29h2v2h-2z"/><path d="m57 29h2v2h-2z"/><path d="m57 57h2v2h-2z"/><path d="m41 57h2v2h-2z"/><path d="m32.857 9.485c-.361-.603-1.354-.603-1.715 0l-6 10c-.19.317-.19.712 0 1.029l6 10c.181.302.507.486.858.486s.677-.184.857-.485l6-10c.19-.317.19-.712 0-1.029zm-.857 18.571-4.834-8.056 4.834-8.056 4.834 8.056z"/><path d="m23 5h2v2h-2z"/><path d="m39 5h2v2h-2z"/></svg>