<svg height="480pt" viewBox="0 0 480 480" width="480pt" xmlns="http://www.w3.org/2000/svg"><path d="m344 264c66.273438 0 120-53.726562 120-120s-53.726562-120-120-120-120 53.726562-120 120c.074219 66.242188 53.757812 119.925781 120 120zm0-224c57.4375 0 104 46.5625 104 104s-46.5625 104-104 104-104-46.5625-104-104c.066406-57.410156 46.589844-103.933594 104-104zm0 0"/><path d="m344 232c48.601562 0 88-39.398438 88-88s-39.398438-88-88-88-88 39.398438-88 88c.058594 48.578125 39.421875 87.941406 88 88zm0-160c39.765625 0 72 32.234375 72 72s-32.234375 72-72 72-72-32.234375-72-72c.042969-39.746094 32.253906-71.957031 72-72zm0 0"/><path d="m328 200h16v-16h24c4.417969 0 8-3.582031 8-8v-32c0-4.417969-3.582031-8-8-8h-40v-16h48v-16h-24v-16h-16v16h-16c-4.417969 0-8 3.582031-8 8v32c0 4.417969 3.582031 8 8 8h40v16h-48v16h16zm0 0"/><path d="m0 480h208v-480h-208zm16-244.6875 45.65625-45.65625-11.3125-11.3125-34.34375 34.34375v-33.375l45.65625-45.65625-11.3125-11.3125-34.34375 34.34375v-108.6875h80v368h-80zm176-219.3125v448h-176v-32h96v-400h-96v-16zm0 0"/><path d="m160 304h16v-272h-16v16h-32v240h32zm-16-32v-208h16v208zm0 0"/><path d="m285.65625 277.65625-11.3125-11.3125-32 32c-3.121094 3.125-3.121094 8.1875 0 11.3125l32 32 11.3125-11.3125-18.34375-18.34375h172.6875v-16h-172.6875zm0 0"/><path d="m128 336h16v16h-16zm0 0"/><path d="m160 336h16v16h-16zm0 0"/><path d="m128 368h16v16h-16zm0 0"/><path d="m160 368h16v16h-16zm0 0"/><path d="m128 400h16v16h-16zm0 0"/><path d="m160 400h16v16h-16zm0 0"/><path d="m400 264h80v16h-80zm0 0"/></svg>