<svg id="Outline" height="512" viewBox="0 0 64 64" width="512" xmlns="http://www.w3.org/2000/svg"><path d="m13.41 30h.05a1 1 0 0 0 1-.95l.54-11.05h5v3a3 3 0 0 0 6 0v-13h12v8h-9a1 1 0 0 0 0 2h9v3a3 3 0 0 0 6 0v-14a5 5 0 0 0 -5-5h-14a5 5 0 0 0 -5 5v9h-6a1 1 0 0 0 -1 1l-.54 12a1 1 0 0 0 .95 1zm8.59-23a3 3 0 0 1 3-3h14a3 3 0 0 1 3 3v14a1 1 0 0 1 -2 0v-14a1 1 0 0 0 -1-1h-14a1 1 0 0 0 -1 1v14a1 1 0 0 1 -2 0z"/><path d="m47 18h2l1 21.41a1 1 0 0 0 1 1 1 1 0 0 0 1-1l-1-22.41a1 1 0 0 0 -1-1h-3a1 1 0 0 0 0 2z"/><path d="m28 49v-16a1 1 0 0 0 -1-1h-24a1 1 0 0 0 -1 1v16a1 1 0 0 0 1 1h24a1 1 0 0 0 1-1zm-24-11h22v2h-22zm22-4v2h-22v-2zm-22 14v-6h22v6z"/><circle cx="7" cy="45" r="1"/><circle cx="9" cy="45" r="1"/><path d="m23 44h-4a1 1 0 0 0 0 2h4a1 1 0 0 0 0-2z"/><path d="m61.87 44.63a7 7 0 0 0 -9.57-2.56l-9.61 5.55a5 5 0 0 0 -6.24-1 1 1 0 0 0 -.37 1.38l2 3.47a7 7 0 0 0 9.56 2.53 5.69 5.69 0 0 0 .65.24 4.86 4.86 0 0 0 1.31.17 4.93 4.93 0 0 0 2.49-.67l3.46-2a3 3 0 0 0 1.45-3.15l4.5-2.59a1 1 0 0 0 .47-.61 1.06 1.06 0 0 0 -.1-.76zm-21 4-.13.07-1.46.84-.88-1.54a3 3 0 0 1 2.5.66zm13.7 1.37-3.46 2a3 3 0 0 1 -3.45-.32l5.91-3.41a1 1 0 0 1 .76-.1 1 1 0 0 1 .24 1.83zm1.43-3.14a2.78 2.78 0 0 0 -1.16-.62 3 3 0 0 0 -2.28.3l-6.93 4a1 1 0 0 0 -.46.6 1 1 0 0 0 .1.76 4.41 4.41 0 0 0 .53.75 5 5 0 0 1 -5.41-1.4l2.51-1.45 10.39-6a5 5 0 0 1 6.25 1z"/><path d="m48.07 38.74-4.33 2.5a1 1 0 0 0 .5 1.87 1 1 0 0 0 .5-.14l4.33-2.5a1 1 0 1 0 -1-1.73z"/><path d="m58.3 52.46-13 7.5h-6l2-1.13a1 1 0 0 0 -1-1.74l-5 2.87h-22.25l.31-7a1 1 0 0 0 -.95-1 1 1 0 0 0 -1.05 1l-.36 8.04a1 1 0 0 0 .28.73 1 1 0 0 0 .72.27h40a1 1 0 0 0 0-2h-2.75l10-5.8a1 1 0 0 0 -1-1.74z"/><path d="m34.48 51.21-5.19 3a1 1 0 0 0 -.37 1.36 1 1 0 0 0 1.37.37l5.19-3a1 1 0 1 0 -1-1.73z"/><path d="m35 31a1.5 1.5 0 0 1 1.5 1.5 1 1 0 0 0 2 0 3.5 3.5 0 0 0 -2.5-3.34v-1.16a1 1 0 0 0 -2 0v1.16a3.49 3.49 0 0 0 1 6.84 1.5 1.5 0 1 1 -1.5 1.5 1 1 0 0 0 -2 0 3.5 3.5 0 0 0 2.5 3.34v1.16a1 1 0 0 0 2 0v-1.16a3.49 3.49 0 0 0 -1-6.84 1.5 1.5 0 0 1 0-3z"/></svg>