<svg id="Layer_3" enable-background="new 0 0 64 64" height="512" viewBox="0 0 64 64" width="512" xmlns="http://www.w3.org/2000/svg"><path d="m57 26c-7.311 0-14.581 1.808-21.047 5.22-.63-.14-1.282-.22-1.953-.22-4.49 0-8.212 3.309-8.882 7.614-7.149 4.83-15.478 7.386-24.118 7.386v2c8.571 0 16.852-2.401 24.065-6.958.481 4.144 3.784 7.438 7.935 7.899v12.059h-8.523l1.451-3.628c.136-.341.075-.729-.16-1.011-.233-.282-.603-.413-.965-.341l-4.382.876-2.621-3.496c-.377-.504-1.223-.504-1.6 0l-2.2 2.933-2.2-2.933c-.377-.504-1.223-.504-1.6 0l-2.622 3.496-4.382-.876c-.386-.078-.785.081-1.014.404s-.244.751-.04 1.091l2.092 3.485h-3.234v2h62v-2h-8v-12.059c4.493-.5 8-4.317 8-8.941 0-4.962-4.037-9-9-9s-9 4.038-9 9c0 4.624 3.507 8.442 8 8.941v12.059h-18v-12.059c4.493-.5 8-4.317 8-8.941 0-3.333-1.826-6.243-4.526-7.798 5.771-2.746 12.13-4.202 18.526-4.202h6v-2h-3zm-10 14c0-3.86 3.141-7 7-7s7 3.14 7 7c0 3.519-2.614 6.432-6 6.92v-3.506l2.707-2.707-1.414-1.414-2.293 2.293-3.293-3.293-1.414 1.414 3.707 3.707v3.506c-3.386-.488-6-3.401-6-6.92zm-41.979 18.424 2.783.557c.375.076.765-.073.996-.38l2.2-2.934 2.2 2.934c.377.504 1.223.504 1.6 0l2.2-2.934 2.2 2.934c.23.308.619.456.996.38l3.189-.638-1.062 2.657h-15.757zm35.979-18.424c0 3.519-2.614 6.432-6 6.92v-3.506l2.707-2.707-1.414-1.414-2.293 2.293-3.293-3.293-1.414 1.414 3.707 3.707v3.506c-3.386-.488-6-3.401-6-6.92 0-3.86 3.141-7 7-7s7 3.14 7 7z"/><path d="m63 23c0-1.302-.839-2.402-2-2.816v-19.184h-2v2.279l-11.316 3.772c-.409.137-.684.518-.684.949s.275.812.684.949l11.316 3.772v7.463c-1.161.414-2 1.514-2 2.816 0 1.654 1.346 3 3 3s3-1.346 3-3zm-11.838-15 7.838-2.612v5.225zm8.838 16c-.552 0-1-.449-1-1s.448-1 1-1 1 .449 1 1-.448 1-1 1z"/><path d="m5 15h13c2.757 0 5-2.243 5-5s-2.243-5-5-5c-.438 0-.877.061-1.303.18-.766-2.456-3.023-4.18-5.697-4.18-3.309 0-6 2.691-6 6-2.206 0-4 1.794-4 4s1.794 4 4 4zm0-6c.271 0 .534.054.783.159.353.15.756.086 1.043-.163.288-.247.411-.638.317-1.006-.098-.378-.143-.692-.143-.99 0-2.206 1.794-4 4-4 2.081 0 3.784 1.575 3.961 3.663.028.344.233.648.54.806.308.157.672.146.97-.032.483-.29.998-.437 1.529-.437 1.654 0 3 1.346 3 3s-1.346 3-3 3h-13c-1.103 0-2-.897-2-2s.897-2 2-2z"/></svg>