<svg height="512" viewBox="0 0 512 512" width="512" xmlns="http://www.w3.org/2000/svg"><path d="m488 80h-32v-16a8 8 0 0 0 -8-8h-32a8 8 0 0 0 -8 8v16h-272v-16a8 8 0 0 0 -8-8h-32a8 8 0 0 0 -8 8v16h-16a8 8 0 0 0 -2.531.414l-41.641 13.886a17.295 17.295 0 0 0 5.472 33.7h30.7v87.6l-.07.768a1274.4 1274.4 0 0 1 -27.352 170.866l-4.378 18.966a8 8 0 0 0 7.8 9.8h112a8 8 0 0 0 8-8v-280h64v87.6l-.07.768a1274.4 1274.4 0 0 1 -27.352 170.867l-4.378 18.965a8 8 0 0 0 7.8 9.8h112a8 8 0 0 0 8-8v-280h64v87.6l-.07.768a1274.4 1274.4 0 0 1 -27.352 170.867l-4.378 18.965a8 8 0 0 0 7.8 9.8h112a8 8 0 0 0 8-8v-280h8a8 8 0 0 0 8-8v-32a8 8 0 0 0 -8-8zm-64-8h16v8h-16zm-320 0h16v8h-16zm-51.828 318.828q6.551-28.383 11.828-57.172v66.344h-13.945zm91.828-30.828h-16v16h16v24h-64v-168h16v-16h-16v-88h64zm68.172 30.828q6.55-28.383 11.828-57.172v66.344h-13.945zm91.828-118.828h-16v16h16v112h-64v-40h16v-16h-16v-184h16v-16h-16v-16h64zm68.172 118.828q6.55-28.383 11.828-57.172v66.344h-13.945zm91.828-246.828h-16v16h16v240h-64v-160h16v-16h-16v-96h64zm16-32h-446.7a1.3 1.3 0 0 1 -.406-2.531l40.406-13.469h134.7v8h16v-8h16v8h16v-8h16v8h16v-8h16v8h16v-8h16v8h16v-8h128z"/><path d="m96 144h16v16h-16z"/><path d="m112 176h16v16h-16z"/><path d="m104 240h16v16h-16z"/><path d="m88 272h16v16h-16z"/><path d="m120 304h16v16h-16z"/><path d="m96 328h16v16h-16z"/><path d="m88 376h16v16h-16z"/><path d="m264 176h16v16h-16z"/><path d="m272 208h16v16h-16z"/><path d="m248 240h16v16h-16z"/><path d="m256 296h16v16h-16z"/><path d="m280 320h16v16h-16z"/><path d="m264 368h16v16h-16z"/><path d="m416 168h16v16h-16z"/><path d="m440 200h16v16h-16z"/><path d="m424 248h16v16h-16z"/><path d="m408 288h16v16h-16z"/><path d="m440 312h16v16h-16z"/><path d="m416 344h16v16h-16z"/><path d="m424 376h16v16h-16z"/></svg>