<?xml version="1.0" encoding="iso-8859-1"?>
<!-- Generator: Adobe Illustrator 19.0.0, SVG Export Plug-In . SVG Version: 6.00 Build 0)  -->
<svg version="1.1" id="Capa_1" xmlns="http://www.w3.org/2000/svg" xmlns:xlink="http://www.w3.org/1999/xlink" x="0px" y="0px"
	 viewBox="0 0 511.999 511.999" style="enable-background:new 0 0 511.999 511.999;" xml:space="preserve">
<g>
	<g>
		<path d="M504.396,205.36H287.728l-5.016-5.016V174.75c0-14.728-11.983-26.711-26.712-26.711c-7.081,0-13.527,2.77-18.312,7.283
			l-43.187-43.187c-2.971-2.969-7.784-2.969-10.754,0c-2.97,2.971-2.97,7.784,0,10.754l46.155,46.155
			c-0.401,1.839-0.613,3.748-0.613,5.705v30.611H112.57c-4.2,0-7.604,3.404-7.604,7.604s3.404,7.604,7.604,7.604h168.856
			l13.453,13.453H15.208v-13.453h62.545c4.2,0,7.604-3.404,7.604-7.604s-3.404-7.604-7.604-7.604H7.604
			c-4.2,0-7.604,3.404-7.604,7.604v28.661c0,4.2,3.404,7.604,7.604,7.604h12.873l4.48,22.4c0.017,0.098,0.037,0.197,0.059,0.294
			l7.585,37.923c0.017,0.097,0.036,0.195,0.058,0.29l5.704,28.519c0.711,3.555,3.831,6.113,7.456,6.113h319.448
			c0.259,0.374,0.552,0.728,0.879,1.055l54.042,54.043c1.485,1.484,3.431,2.226,5.378,2.226c1.946,0,3.892-0.742,5.378-2.226
			l40.533-40.532c1.425-1.427,2.226-3.36,2.226-5.378s-0.801-3.95-2.226-5.378l-3.934-3.934c3.022-0.547,5.477-2.891,6.096-5.991
			l5.704-28.519c0.021-0.096,0.041-0.193,0.058-0.29l7.585-37.923c0.021-0.097,0.042-0.195,0.059-0.294l4.48-22.4h12.871
			c4.2,0,7.604-3.404,7.604-7.604v-28.661C512,208.765,508.596,205.36,504.396,205.36z M244.497,205.361v-21.722l21.721,21.722
			H244.497z M267.505,185.137l-19.057-19.057c2.022-1.763,4.665-2.834,7.552-2.834c6.344,0,11.504,5.161,11.504,11.503V185.137z
			 M38.678,262.684l-2.692-13.455h274.101l13.455,13.455H38.678z M41.719,277.893H338.75l23.008,23.007H46.321L41.719,277.893z
			 M365.947,329.559H52.054l-2.691-13.452h319.274L365.947,329.559z M425.566,383.734l-45.787-45.788l3.17-15.855l30.485,30.486
			c1.485,1.484,3.431,2.227,5.378,2.227c1.946,0,3.892-0.742,5.378-2.227c2.97-2.971,2.97-7.784,0-10.754l-30.486-30.486
			l15.852-3.169l5.687,5.687c0.017,0.017,0.036,0.036,0.053,0.053l40.051,40.05L425.566,383.734z M459.948,329.559h-6.34
			c-0.366,0-0.725,0.026-1.077,0.076l-13.528-13.528h23.635L459.948,329.559z M465.681,300.899h-41.885l-6.364-6.364
			c-1.798-1.797-4.374-2.577-6.868-2.079l-29.785,5.955l-20.519-20.519h110.023L465.681,300.899z M473.324,262.685H345.051
			l-13.455-13.455h144.42L473.324,262.685z M496.792,234.021H316.388l-13.453-13.453h193.857V234.021z"/>
	</g>
</g>
<g>
</g>
<g>
</g>
<g>
</g>
<g>
</g>
<g>
</g>
<g>
</g>
<g>
</g>
<g>
</g>
<g>
</g>
<g>
</g>
<g>
</g>
<g>
</g>
<g>
</g>
<g>
</g>
<g>
</g>
</svg>
