<?xml version="1.0" encoding="iso-8859-1"?>
<!-- Generator: Adobe Illustrator 16.0.0, SVG Export Plug-In . SVG Version: 6.00 Build 0)  -->
<!DOCTYPE svg PUBLIC "-//W3C//DTD SVG 1.1//EN" "http://www.w3.org/Graphics/SVG/1.1/DTD/svg11.dtd">
<svg version="1.1" id="Capa_1" xmlns="http://www.w3.org/2000/svg" xmlns:xlink="http://www.w3.org/1999/xlink" x="0px" y="0px"
	 width="415.722px" height="415.722px" viewBox="0 0 415.722 415.722" style="enable-background:new 0 0 415.722 415.722;"
	 xml:space="preserve">
<g>
	<g id="Layer_2_2_">
		<path d="M350.391,274.819c3.551,0,6.834-1.883,8.629-4.946l55.332-94.5c2.199-3.753,1.715-8.496-1.189-11.731
			c-2.904-3.237-7.572-4.222-11.539-2.442c-0.543,0.244-54.771,24.317-107.367,24.317c-33.568,0-58.847-9.729-75.132-28.916
			l-5.121-6.041c-54.638-64.501-66.008-77.924-195.658-91.849c-4.579-0.492-8.921,2.22-10.48,6.566
			c-1.559,4.346,0.06,9.194,3.917,11.731c39.063,25.699,82.571,146.385,96.039,190.719c1.28,4.213,5.165,7.094,9.568,7.094h54.555
			l-35.648,62.251H45c-13.785,0-25-11.215-25-25s11.215-25,25-25c5.523,0,10-4.477,10-10c0-5.522-4.477-10-10-10
			c-24.813,0-45,20.188-45,45c0,24.813,20.187,45,45,45h351.527c5.523,0,10-4.477,10-10c0-5.522-4.477-10-10-10h-69.9
			l-35.648-62.251H350.391z M95.565,175.39c-17.401-41.771-34.292-73.041-50.462-93.475c94.512,11.778,105.43,24.657,153.64,81.571
			l5.133,6.056c20.261,23.87,50.667,35.974,90.38,35.974c33.316,0,66.375-8.552,88.561-15.867l-38.16,65.17H124.721
			C120.307,241.089,109.668,209.244,95.565,175.39z M303.58,337.07H159.344l35.648-62.251h72.939L303.58,337.07z"/>
	</g>
</g>
<g>
</g>
<g>
</g>
<g>
</g>
<g>
</g>
<g>
</g>
<g>
</g>
<g>
</g>
<g>
</g>
<g>
</g>
<g>
</g>
<g>
</g>
<g>
</g>
<g>
</g>
<g>
</g>
<g>
</g>
</svg>
