<?xml version="1.0" encoding="iso-8859-1"?>
<!-- Generator: Adobe Illustrator 19.0.0, SVG Export Plug-In . SVG Version: 6.00 Build 0)  -->
<svg version="1.1" id="Capa_1" xmlns="http://www.w3.org/2000/svg" xmlns:xlink="http://www.w3.org/1999/xlink" x="0px" y="0px"
	 viewBox="0 0 512 512" style="enable-background:new 0 0 512 512;" xml:space="preserve">
<g>
	<g>
		<path d="M511.984,170.62c-0.004-7.028-5.704-12.721-12.732-12.721h-8.797V84.005h12.052c6.928,0,10.151-8.629,4.925-13.172
			L434.327,7.277c-2.824-2.455-7.026-2.455-9.851,0l-73.105,63.556c-5.228,4.545-2.001,13.172,4.925,13.172h12.052v75.026
			c-13.977,3.479-24.927,14.678-28.053,28.789h-37.146c-4.214,0-7.621,3.467-7.504,7.718c0.113,4.116,3.698,7.295,7.815,7.295
			h35.921v41.527h-128.94c-10.972,0-20.409-8.318-21.19-19.262c-0.817-11.451,7.772-21.114,18.592-22.154
			c0.302-0.151,1.063-0.11,64.957-0.11c4.117,0,7.711-3.18,7.824-7.295c0.116-4.251-3.29-7.718-7.504-7.718
			c-68.372,0.01-67.678-0.686-75.557,2.212c-24.774,9.164-31.209,40.588-12.991,58.832l62.045,63.006
			c-60.969,0.647-63.497-1.782-74.476,2.862c-1.177,0-10.577,5.562-13.912,10.579c-0.09,0.1,0.573-0.648-59.643,66.859
			c-2.762,3.093-2.492,7.847,0.601,10.599c3.093,2.762,7.837,2.492,10.599-0.601c0.128-0.143,41.432-46.451,41.557-46.591
			c2.898,13.215,13.796,24.605,28.535,27.274C78.906,493.42,83.02,488.841,82.604,489.406c-1.011,1.341-2.622,2.142-4.304,2.142
			H40.337c-12.107,0-22.823-8.719-24.942-20.918c-2.775-15.265,9.02-29.736,24.942-29.736h23.721
			c15.239,0,21.486-12.588,25.743-16.314c2.762-3.093,2.492-7.847-0.601-10.599c-3.093-2.762-7.847-2.492-10.599,0.601
			c-5.687,5.488-7.76,11.3-14.543,11.3H40.337c-33.2,0-51.725,37.791-32.659,64.026c7.577,10.429,19.787,16.655,32.659,16.655H78.3
			c6.235,0,12.211-2.913,16.054-7.807l105.343-115.322h132.267c32.238,0,47.424-39.052,25.332-61.144l-61.955-62.915
			c22.173,0,94.996,0,117.385,0v239.684c0,4.146,3.361,7.507,7.507,7.507h84.242c4.146,0,7.507-3.358,7.507-7.505
			C511.982,380.601,512.021,231.282,511.984,170.62z M352.191,352.244c-2.082,9.248-10.369,16.174-20.228,16.174
			c-51.872,0-95.141,0-145.728,0c-17.437,0-26.978-20.173-16.294-33.67c0-0.188,6.062-7.867,16.294-7.867
			c41.358,0,100.42,0,145.728,0C345.62,326.882,355.204,339.764,352.191,352.244z M325.968,311.869h-58.291l-51.696-52.496h58.281
			L325.968,311.869z M354.397,244.359v-48.278c0-12.775,10.393-23.168,23.168-23.168h35.16v71.446H354.397z M383.361,157.899V84.005
			h45.649c4.146,0,7.507-3.36,7.507-7.507s-3.361-7.507-7.507-7.507h-52.638l53.03-46.103l53.029,46.103h-23.394
			c-4.146,0-7.507,3.36-7.507,7.507s3.361,7.507,7.507,7.507h16.405v73.894C437.129,157.899,415.138,157.899,383.361,157.899z
			 M496.969,491.549H427.74V463.84h69.229V491.549z M496.969,448.828H427.74v-25.88h69.229V448.828z M496.969,407.934H427.74
			v-25.881h69.229V407.934z M496.969,367.04H427.74v-25.881h69.229V367.04z M496.969,326.146H427.74v-25.881h69.229V326.146z
			 M496.969,285.252H427.74v-25.88h69.229V285.252z M496.969,244.359H427.74v-71.447h69.229V244.359z"/>
	</g>
</g>
<g>
</g>
<g>
</g>
<g>
</g>
<g>
</g>
<g>
</g>
<g>
</g>
<g>
</g>
<g>
</g>
<g>
</g>
<g>
</g>
<g>
</g>
<g>
</g>
<g>
</g>
<g>
</g>
<g>
</g>
</svg>
