<svg height="390pt" viewBox="0 -26 390.19482 390" width="390pt" xmlns="http://www.w3.org/2000/svg"><path d="m356.0625 73.171875c11.886719 0 21.558594-9.667969 21.558594-21.554687 0-11.886719-9.671875-21.554688-21.558594-21.554688s-21.554688 9.667969-21.554688 21.554688c0 11.886718 9.667969 21.554687 21.554688 21.554687zm0-29.457031c4.359375 0 7.90625 3.546875 7.90625 7.902344 0 4.351562-3.546875 7.898437-7.90625 7.898437-4.355469 0-7.902344-3.546875-7.902344-7.898437 0-4.355469 3.546875-7.902344 7.902344-7.902344zm0 0"/><path d="m21.558594 262.167969c-11.886719 0-21.558594 9.667969-21.558594 21.554687 0 11.886719 9.671875 21.554688 21.558594 21.554688 11.886718 0 21.554687-9.667969 21.554687-21.554688 0-11.886718-9.667969-21.554687-21.554687-21.554687zm0 29.457031c-4.359375 0-7.90625-3.546875-7.90625-7.902344 0-4.351562 3.546875-7.898437 7.90625-7.898437 4.355468 0 7.902344 3.546875 7.902344 7.898437 0 4.355469-3.546876 7.902344-7.902344 7.902344zm0 0"/><path d="m325.664062 10.65625c0 5.832031-4.730468 10.558594-10.558593 10.558594-5.832031 0-10.5625-4.726563-10.5625-10.558594s4.730469-10.5585938 10.5625-10.5585938c5.828125 0 10.558593 4.7265628 10.558593 10.5585938zm0 0"/><path d="m79.902344 311.03125c0 5.832031-4.726563 10.558594-10.558594 10.558594s-10.558594-4.726563-10.558594-10.558594 4.726563-10.558594 10.558594-10.558594 10.558594 4.726563 10.558594 10.558594zm0 0"/><path d="m175.328125 85.578125c1.335937 1.332031 3.082031 2 4.828125 2s3.492188-.667969 4.824219-2l7.242187-7.242187 7.238282 7.242187c1.332031 1.332031 3.082031 2 4.828124 2 1.746094 0 3.492188-.667969 4.824219-2 2.667969-2.667969 2.667969-6.988281 0-9.652344l-7.238281-7.242187 7.238281-7.238282c2.667969-2.664062 2.667969-6.988281 0-9.652343-2.664062-2.667969-6.984375-2.667969-9.652343 0l-7.238282 7.238281-7.242187-7.238281c-2.664063-2.667969-6.984375-2.667969-9.652344 0-2.664063 2.664062-2.664063 6.988281 0 9.652343l7.242187 7.238282-7.242187 7.242187c-2.664063 2.664063-2.664063 6.984375 0 9.652344zm0 0"/><path d="m359.304688 297.550781c-2.667969-2.664062-6.988282-2.664062-9.65625 0l-7.238282 7.238281-7.238281-7.238281c-2.667969-2.664062-6.988281-2.664062-9.652344 0-2.667969 2.664063-2.667969 6.988281 0 9.652344l7.238281 7.238281-7.238281 7.242188c-2.667969 2.664062-2.667969 6.988281 0 9.652344 1.332031 1.332031 3.078125 2 4.824219 2s3.492188-.667969 4.828125-2l7.238281-7.238282 7.238282 7.238282c1.335937 1.332031 3.082031 2 4.828124 2 1.746094 0 3.492188-.667969 4.828126-2 2.664062-2.664063 2.664062-6.988282 0-9.652344l-7.242188-7.242188 7.242188-7.238281c2.664062-2.664063 2.664062-6.988281 0-9.652344zm0 0"/><path d="m390.164062 154.675781c.183594-1.910156-.445312-3.816406-1.738281-5.246093-1.296875-1.425782-3.128906-2.238282-5.058593-2.238282h-40.949219l-204.832031-.207031c-.0625 0-.121094 0-.1875 0-14.496094 0-28.128907-5.632813-38.402344-15.871094-9.636719-9.605469-15.164063-22.191406-15.859375-35.675781.167969 0 .324219.007812.492187.007812 11.1875 0 26.214844-2.167968 36.179688-12.132812 17.265625-17.273438 11.128906-49.71875 10.863281-51.09375-.535156-2.726562-2.664063-4.855469-5.382813-5.386719-1.382812-.265625-33.828124-6.398437-51.089843 10.867188-3.40625 3.402343-5.875 7.40625-7.683594 11.636719-1.8125-4.230469-4.277344-8.234376-7.683594-11.636719-17.265625-17.269531-49.71875-11.136719-51.089843-10.867188-2.722657.53125-4.847657 2.660157-5.386719 5.386719-.265625 1.371094-6.402344 33.816406 10.863281 51.09375 9.574219 9.570312 23.777344 11.921875 34.804688 12.09375-4.441407 17.601562-5.894532 35.964844-4.007813 54.730469 7.238281 72.003906 58.496094 132.953125 127.726563 152.246093v8.648438c0 15.058594 12.25 27.308594 27.308593 27.308594 15.054688 0 27.304688-12.25 27.304688-27.308594v-2.4375c85.4375-3.839844 155.585937-69.378906 163.808593-153.917969zm-163.808593 140.242188v-24.847657c0-3.441406-.707031-6.707031-1.875-9.742187.601562-.054687 1.1875-.175781 1.796875-.175781 32.871094 0 63.957031-17.148438 83.113281-45.816406l36.617187-53.492188h29.65625c-10.816406 73.933594-73.453124 130.386719-149.308593 134.074219zm-142.5-247.566407c8.375-8.382812 24.636719-8.753906 34.09375-7.78125.964843 9.429688.632812 25.660157-7.789063 34.085938-8.386718 8.378906-24.648437 8.707031-34.097656 7.78125-.964844-9.433594-.636719-25.660156 7.792969-34.085938zm-68.761719-7.800781c9.441406-.941406 25.664062-.625 34.085938 7.800781 8.382812 8.378907 8.722656 24.644532 7.78125 34.097657-9.429688.945312-25.660157.625-34.085938-7.792969-8.382812-8.386719-8.726562-24.644531-7.78125-34.105469zm42.507812 109.226563c-1.703124-16.941406-.578124-33.527344 3.332032-49.375h8.746094c1.546874 15.640625 8.398437 30.132812 19.675781 41.378906 12.851562 12.808594 29.90625 19.855469 48.015625 19.855469h.230468l191.871094.191406-31.394531 45.859375c-16.660156 24.929688-43.5 39.808594-71.800781 39.808594-3.722656 0-7.3125.746094-10.785156 1.914062-4.589844-3.492187-10.246094-5.648437-16.441407-5.648437-15.058593 0-27.308593 12.246093-27.308593 27.304687v18.023438c-61.972657-18.890625-107.589844-74.164063-114.140626-139.3125zm155.101563 162.253906c0 7.523438-6.125 13.652344-13.652344 13.652344-7.53125 0-13.652343-6.128906-13.652343-13.652344v-40.960938c0-7.527343 6.121093-13.652343 13.652343-13.652343 7.527344 0 13.652344 6.125 13.652344 13.652343zm0 0"/><path d="m290.292969 191.871094c0 4.683594-3.796875 8.476562-8.476563 8.476562-4.679687 0-8.476562-3.792968-8.476562-8.476562 0-4.679688 3.796875-8.472656 8.476562-8.472656 4.679688 0 8.476563 3.792968 8.476563 8.472656zm0 0"/></svg>