<svg xmlns="http://www.w3.org/2000/svg" xmlns:xlink="http://www.w3.org/1999/xlink" version="1.1" x="0px" y="0px" viewBox="0 0 64 80" style="enable-background:new 0 0 64 64;" xml:space="preserve"><g><path d="M50,21c3.86,0,7-3.141,7-7s-3.14-7-7-7s-7,3.141-7,7S46.14,21,50,21z M50,9c2.757,0,5,2.243,5,5s-2.243,5-5,5s-5-2.243-5-5   S47.243,9,50,9z"/><rect x="49" y="1" width="2" height="4"/><rect x="41.222" y="4.222" transform="matrix(0.707 -0.7072 0.7072 0.707 7.9693 31.6807)" width="2" height="4"/><rect x="37" y="13" width="4" height="2"/><rect x="40.222" y="20.778" transform="matrix(0.7071 -0.7071 0.7071 0.7071 -3.0331 36.2341)" width="4" height="2"/><rect x="49" y="23" width="2" height="4"/><rect x="56.778" y="19.778" transform="matrix(0.7071 -0.7071 0.7071 0.7071 1.5232 47.234)" width="2" height="4"/><rect x="59" y="13" width="4" height="2"/><rect x="55.778" y="5.222" transform="matrix(0.7071 -0.7071 0.7071 0.7071 12.5234 42.6776)" width="4" height="2"/><path d="M42.469,49.108c1.923-0.855,3.437-2.326,4.397-4.108H58c2.757,0,5-2.243,5-5s-2.243-5-5-5c-0.03,0-0.06,0.004-0.09,0.005   C57.434,32.169,54.969,30,52,30c-1.501,0-2.908,0.552-4,1.545C46.908,30.552,45.501,30,44,30c-0.403,0-0.807,0.04-1.151,0.111   l-0.084,0.013L38,23.243l-8.344,12.052C28.573,36.86,28,38.693,28,40.597c0,3.678,2.171,7.019,5.531,8.512L37,50.65v5.303   c-0.605,0.31-1.2,0.645-1.771,1.025l-1.051,0.701C30.522,54.677,25.912,53,21.113,53c-1.054,0-2.09,0.103-3.113,0.257v-8.708   l4.503-2.866C26.571,39.095,29,34.67,29,29.848c0-2.71-0.778-5.346-2.245-7.612L22.815,16H26c2.757,0,5-2.243,5-5s-2.243-5-5-5   c-0.03,0-0.06,0.004-0.09,0.005C25.434,3.169,22.969,1,20,1c-1.501,0-2.908,0.552-4,1.545C14.908,1.552,13.501,1,12,1   C9.031,1,6.566,3.169,6.09,6.005C6.06,6.004,6.03,6,6,6c-2.757,0-5,2.243-5,5s2.243,5,5,5h5.28l-4.029,6.227   C5.778,24.502,5,27.138,5,29.848c0,4.822,2.429,9.247,6.497,11.836L16,44.549v9.112c-3.54,0.902-6.793,2.717-9.443,5.368L4.586,61   H1v2h62v-2h-3.586l-1.805-1.805C54.259,55.845,49.805,54,45.067,54c-2.088,0-4.135,0.373-6.067,1.077V50.65L42.469,49.108z    M12.571,39.996C9.083,37.776,7,33.982,7,29.848c0-2.324,0.667-4.584,1.93-6.535l8.083-12.491l1.155,1.733l1.664-1.109   l-2.845-4.267L12.574,14H6c-1.654,0-3-1.346-3-3s1.346-3,3-3c0.86,0,1.681,0.37,2.25,1.016l1.5-1.322   c-0.475-0.538-1.054-0.962-1.694-1.25C8.33,4.502,9.985,3,12,3c1.263,0,2.429,0.592,3.198,1.625L16,5.701l0.802-1.076   C17.571,3.592,18.737,3,20,3c2.015,0,3.67,1.502,3.944,3.443c-0.64,0.289-1.219,0.712-1.694,1.25l1.5,1.322   C24.319,8.37,25.14,8,26,8c1.654,0,3,1.346,3,3s-1.346,3-3,3h-6.815l5.885,9.312c1.262,1.951,1.93,4.211,1.93,6.535   c0,4.135-2.083,7.929-5.571,10.148L18,42.178v-4.764l4.707-4.707l-1.414-1.414L18,34.586v-6.172l4.707-4.707l-1.414-1.414   L18,25.586V15h-2v10.586l-3.293-3.293l-1.414,1.414L16,28.414v6.172l-3.293-3.293l-1.414,1.414L16,37.414v4.764L12.571,39.996z    M7.971,60.443C11.481,56.934,16.148,55,21.113,55c5.197,0,10.135,2.191,13.649,6H7.414L7.971,60.443z M56.195,60.609L56.586,61   H37.453l-0.848-0.97c-0.291-0.333-0.595-0.651-0.904-0.962l0.638-0.425C38.933,56.914,41.951,56,45.067,56   C49.271,56,53.222,57.637,56.195,60.609z M47.198,33.625L48,34.701l0.802-1.076C49.571,32.592,50.737,32,52,32   c2.015,0,3.67,1.502,3.944,3.443c-0.64,0.289-1.219,0.712-1.694,1.25l1.5,1.322C56.319,37.37,57.14,37,58,37c1.654,0,3,1.346,3,3   s-1.346,3-3,3H47.668C47.876,42.226,48,41.422,48,40.597c0-1.903-0.573-3.736-1.656-5.302l-2.273-3.282   C45.273,32.042,46.446,32.615,47.198,33.625z M34.344,47.28C31.705,46.108,30,43.484,30,40.597c0-1.494,0.45-2.935,1.3-4.163   l6.7-9.677l6.7,9.677c0.851,1.229,1.3,2.669,1.3,4.163c0,2.888-1.705,5.512-4.344,6.684L39,48.461v-4.047l4.707-4.707l-1.414-1.414   L39,41.586V31h-2v10.586l-3.293-3.293l-1.414,1.414L37,44.414v4.047L34.344,47.28z"/></g><text x="0" y="79" fill="#000000" font-size="5px" font-weight="bold" font-family="'Helvetica Neue', Helvetica, Arial-Unicode, Arial, Sans-serif">Created by Eucalyp</text><text x="0" y="84" fill="#000000" font-size="5px" font-weight="bold" font-family="'Helvetica Neue', Helvetica, Arial-Unicode, Arial, Sans-serif">from the Noun Project</text></svg>