<?xml version="1.0"?>
<svg xmlns="http://www.w3.org/2000/svg" id="Outline" viewBox="0 0 512 512" width="512" height="512"><path d="M256,272a24,24,0,1,0-24-24A24.027,24.027,0,0,0,256,272Zm0-32a8,8,0,1,1-8,8A8.009,8.009,0,0,1,256,240Z"/><path d="M320,272a24,24,0,1,0-24-24A24.027,24.027,0,0,0,320,272Zm0-32a8,8,0,1,1-8,8A8.009,8.009,0,0,1,320,240Z"/><path d="M176,240h12.687l-18.344,18.343A8,8,0,0,0,176,272h32a8,8,0,0,0,0-16H195.313l18.344-18.343A8,8,0,0,0,208,224H176a8,8,0,0,0,0,16Z"/><path d="M488,320H400V297.979A68.021,68.021,0,0,0,496,236a68.282,68.282,0,0,0-39.577-61.769A63.351,63.351,0,0,0,464,144a64.4,64.4,0,0,0-34.15-56.607,56,56,0,1,0-107.7,0A64.4,64.4,0,0,0,288,144a63.345,63.345,0,0,0,7.581,30.238A68.672,68.672,0,0,0,272.17,192H239.83a68.672,68.672,0,0,0-23.411-17.762A63.345,63.345,0,0,0,224,144a64.4,64.4,0,0,0-34.15-56.607,56,56,0,1,0-107.7,0A64.4,64.4,0,0,0,48,144a63.351,63.351,0,0,0,7.577,30.231A68,68,0,0,0,84,304a67.507,67.507,0,0,0,28-6.021V320H24a8,8,0,0,0-8,8V488a8,8,0,0,0,8,8H488a8,8,0,0,0,8-8V328A8,8,0,0,0,488,320Zm-8,116.305A31.8,31.8,0,0,0,464,432V336h16ZM432,336h16v65.021A32.041,32.041,0,0,0,440,400a31.455,31.455,0,0,0-8,1.041Zm-16,0v52.372A31.546,31.546,0,0,0,400,384V336ZM280.018,433.008A31.974,31.974,0,0,0,260.305,480H219.7a32,32,0,0,0-19.659-46.988c.012-.338.018-.676.018-1.012a32.006,32.006,0,0,0-31.939-32A31.389,31.389,0,0,0,160,401.078V382.9l.146.01A15.994,15.994,0,0,1,176,368a15.773,15.773,0,0,1,10.646,4.172,8,8,0,0,0,10.708,0A15.773,15.773,0,0,1,208,368a15.994,15.994,0,0,1,15.854,14.913,8,8,0,0,0,13.388,5.348A15.918,15.918,0,0,1,264,400a15.727,15.727,0,0,1-1.037,5.421,8,8,0,0,0,8.03,10.716c.415-.027.821-.076,1.228-.133l.019,0a16.013,16.013,0,0,1,10.158,3.861A31.8,31.8,0,0,0,280,432Q280,432.5,280.018,433.008ZM128,304h16V448H128Zm256-96v80H128V208ZM120,464h32v16H120Zm172-56.956a32.077,32.077,0,0,0-12.021-6.03Q280,400.506,280,400a32.036,32.036,0,0,0-32-32,31.559,31.559,0,0,0-11.3,2.093A32,32,0,0,0,208,352a31.636,31.636,0,0,0-16,4.365,31.538,31.538,0,0,0-32-.01V304H352v80a31.992,31.992,0,0,0-28.7,18.094A31.773,31.773,0,0,0,292,407.044ZM360,464h32v16H360Zm8-16V304h16V448ZM314.039,173.356A47.52,47.52,0,0,1,304,144a48.255,48.255,0,0,1,31.024-44.9,8,8,0,0,0,4.469-10.756,40,40,0,1,1,73.014,0A8,8,0,0,0,416.976,99.1,48.255,48.255,0,0,1,448,144a47.52,47.52,0,0,1-10.039,29.356,8,8,0,0,0,4.156,12.6A52,52,0,0,1,428,288a51.468,51.468,0,0,1-28-8.188V200a8,8,0,0,0-8-8h-8V171.314l29.657-29.657a8,8,0,0,0-11.314-11.314L384,148.686V72a8,8,0,0,0-16,0v76.686l-18.343-18.343a8,8,0,0,0-11.314,11.314L368,171.314V192H296.33a51.734,51.734,0,0,1,13.553-6.044,8,8,0,0,0,4.156-12.6ZM32,236a52.165,52.165,0,0,1,37.883-50.044,8,8,0,0,0,4.156-12.6A47.52,47.52,0,0,1,64,144,48.255,48.255,0,0,1,95.024,99.1a8,8,0,0,0,4.469-10.756,40,40,0,1,1,73.014,0A8,8,0,0,0,176.976,99.1,48.255,48.255,0,0,1,208,144a47.52,47.52,0,0,1-10.039,29.356,8,8,0,0,0,4.156,12.6A51.734,51.734,0,0,1,215.67,192H144V171.314l29.657-29.657a8,8,0,0,0-11.314-11.314L144,148.686V72a8,8,0,0,0-16,0v76.686l-18.343-18.343a8,8,0,0,0-11.314,11.314L128,171.314V192h-8a8,8,0,0,0-8,8v79.812A51.468,51.468,0,0,1,84,288,52.059,52.059,0,0,1,32,236Zm80,148a31.543,31.543,0,0,0-16,4.372V336h16ZM64,336H80v65.041A31.466,31.466,0,0,0,72,400a32.041,32.041,0,0,0-8,1.021Zm-16,0v96a31.8,31.8,0,0,0-16,4.305V336ZM32,480V464a16.019,16.019,0,0,1,15.76-16l.019,0c.073.01.148.015.221.024V480Zm32,0V418.156A15.961,15.961,0,0,1,72,416a15.689,15.689,0,0,1,8,2.228V480Zm32-64.045a8.006,8.006,0,0,0,.146-1.043A15.994,15.994,0,0,1,112,400v48a8,8,0,0,0-8,8v24H96ZM168,480V456a8,8,0,0,0-7.925-8l-.066-29.7a15.592,15.592,0,0,1,8.114-2.3,15.988,15.988,0,0,1,15.939,16,15.812,15.812,0,0,1-1.035,5.429,8,8,0,0,0,8.035,10.707c.414-.026.821-.075,1.226-.132l.016,0a16,16,0,0,1-.242,32Zm104-16a16.018,16.018,0,0,1,15.76-16l.017,0c.407.057.814.106,1.229.133a8,8,0,0,0,8.031-10.714A15.746,15.746,0,0,1,296,432a15.919,15.919,0,0,1,26.759-11.739,8,8,0,0,0,13.387-5.349A15.994,15.994,0,0,1,352,400v48a8,8,0,0,0-8,8v24H288A16.019,16.019,0,0,1,272,464Zm136,16V456a8,8,0,0,0-8-8V400a15.994,15.994,0,0,1,15.854,14.913,7.961,7.961,0,0,0,.146,1.04V480Zm24,0V418.228A15.687,15.687,0,0,1,440,416a15.961,15.961,0,0,1,8,2.156V480Zm48,0H464V448.028c.073-.009.148-.014.221-.024l.019,0A16.019,16.019,0,0,1,480,464Z"/></svg>
