<svg xmlns="http://www.w3.org/2000/svg" xmlns:xlink="http://www.w3.org/1999/xlink" width="20" height="20" viewBox="0 0 20 20">
  <defs>
    <clipPath id="clip-path">
      <rect id="Rectangle_45" data-name="Rectangle 45" width="20" height="20" transform="translate(710 569)" fill="#434343" stroke="#707070" stroke-width="1"/>
    </clipPath>
  </defs>
  <g id="Mask_Group_7" data-name="Mask Group 7" transform="translate(-710 -569)" clip-path="url(#clip-path)">
    <g id="shower" transform="translate(711.019 569)">
      <path id="Path_31" data-name="Path 31" d="M17.628,8.812a.339.339,0,0,0,.339-.339V.339A.339.339,0,0,0,17.628,0C16.162,0,13.9,1.165,13.9,2.711V3.05H6.783A1.7,1.7,0,0,0,5.088,4.745V6.36a2.03,2.03,0,0,0-.649,1.15A4.406,4.406,0,0,0,.7,11.581a1.014,1.014,0,0,0,.325,1.976H11.189a1.014,1.014,0,0,0,.325-1.976A4.406,4.406,0,0,0,7.771,7.509a2.03,2.03,0,0,0-.649-1.15V5.084H13.9V6.1C13.9,7.647,16.162,8.812,17.628,8.812Zm-3.05-6.1c0-.983,1.563-1.855,2.711-2.009V8.11c-1.148-.154-2.711-1.027-2.711-2.009ZM7.061,7.456H5.15c.115-.344.373-.678.617-.678h.678c.245,0,.5.334.617.678Zm4.128,5.423H1.022a.339.339,0,0,1,0-.678H11.189a.339.339,0,1,1,0,.678Zm-.354-1.356H1.376A3.733,3.733,0,0,1,5.089,8.134H7.122a3.733,3.733,0,0,1,3.713,3.389ZM6.783,4.406a.339.339,0,0,0-.339.339V6.1H5.766V4.745A1.017,1.017,0,0,1,6.783,3.728H13.9v.678Zm0,0" transform="translate(-0.005)" fill="#434343"/>
      <path id="Path_32" data-name="Path 32" d="M3.275,36.637a.339.339,0,1,0-.678,0v.339a.339.339,0,0,0,.678,0Zm0,0" transform="translate(-1.581 -22.063)" fill="#434343"/>
      <path id="Path_33" data-name="Path 33" d="M6.732,36.637a.339.339,0,1,0-.678,0V38.67a.339.339,0,1,0,.678,0Zm0,0" transform="translate(-3.682 -22.063)" fill="#434343"/>
      <path id="Path_34" data-name="Path 34" d="M10.189,36.637a.339.339,0,1,0-.678,0v.339a.339.339,0,0,0,.678,0Zm0,0" transform="translate(-5.783 -22.063)" fill="#434343"/>
      <path id="Path_35" data-name="Path 35" d="M13.646,36.637a.339.339,0,1,0-.678,0V38.67a.339.339,0,1,0,.678,0Zm0,0" transform="translate(-7.885 -22.063)" fill="#434343"/>
      <path id="Path_36" data-name="Path 36" d="M17.1,36.637a.339.339,0,1,0-.678,0v.339a.339.339,0,0,0,.678,0Zm0,0" transform="translate(-9.986 -22.063)" fill="#434343"/>
      <path id="Path_37" data-name="Path 37" d="M20.56,36.637a.339.339,0,1,0-.678,0V38.67a.339.339,0,1,0,.678,0Zm0,0" transform="translate(-12.087 -22.063)" fill="#434343"/>
      <path id="Path_38" data-name="Path 38" d="M24.017,36.637a.339.339,0,1,0-.678,0v.339a.339.339,0,0,0,.678,0Zm0,0" transform="translate(-14.188 -22.063)" fill="#434343"/>
      <path id="Path_39" data-name="Path 39" d="M6.393,44.94a.339.339,0,0,0-.339.339V46.3a.339.339,0,0,0,.678,0V45.279A.339.339,0,0,0,6.393,44.94Zm0,0" transform="translate(-3.682 -27.317)" fill="#434343"/>
      <path id="Path_40" data-name="Path 40" d="M13.307,44.94a.339.339,0,0,0-.339.339V46.3a.339.339,0,0,0,.678,0V45.279A.339.339,0,0,0,13.307,44.94Zm0,0" transform="translate(-7.885 -27.317)" fill="#434343"/>
      <path id="Path_41" data-name="Path 41" d="M20.221,44.94a.339.339,0,0,0-.339.339V46.3a.339.339,0,0,0,.678,0V45.279A.339.339,0,0,0,20.221,44.94Zm0,0" transform="translate(-12.087 -27.317)" fill="#434343"/>
      <path id="Path_42" data-name="Path 42" d="M27.135,44.94a.339.339,0,0,0-.339.339V46.3a.339.339,0,0,0,.678,0V45.279A.339.339,0,0,0,27.135,44.94Zm0,0" transform="translate(-16.29 -27.317)" fill="#434343"/>
      <path id="Path_43" data-name="Path 43" d="M27.474,36.637a.339.339,0,1,0-.678,0V38.67a.339.339,0,1,0,.678,0Zm0,0" transform="translate(-16.29 -22.063)" fill="#434343"/>
      <path id="Path_44" data-name="Path 44" d="M3.275,40.958a.339.339,0,0,0-.678,0v2.033a.339.339,0,1,0,.678,0Zm0,0" transform="translate(-1.581 -24.69)" fill="#434343"/>
      <path id="Path_45" data-name="Path 45" d="M10.189,40.958a.339.339,0,0,0-.678,0v2.033a.339.339,0,1,0,.678,0Zm0,0" transform="translate(-5.783 -24.69)" fill="#434343"/>
      <path id="Path_46" data-name="Path 46" d="M17.1,40.958a.339.339,0,0,0-.678,0v2.033a.339.339,0,1,0,.678,0Zm0,0" transform="translate(-9.986 -24.69)" fill="#434343"/>
      <path id="Path_47" data-name="Path 47" d="M24.017,40.958a.339.339,0,0,0-.678,0v2.033a.339.339,0,1,0,.678,0Zm0,0" transform="translate(-14.188 -24.69)" fill="#434343"/>
      <path id="Path_48" data-name="Path 48" d="M3.065,49.284a.351.351,0,0,0-.2-.017.454.454,0,0,0-.061.017.672.672,0,0,0-.061.034.565.565,0,0,0-.05.041.391.391,0,0,0-.071.112A.285.285,0,0,0,2.6,49.6a.339.339,0,1,0,.651-.129.35.35,0,0,0-.071-.112.515.515,0,0,0-.112-.075Zm0,0" transform="translate(-1.581 -29.943)" fill="#434343"/>
      <path id="Path_49" data-name="Path 49" d="M9.609,49.366a.35.35,0,0,0-.071.112.335.335,0,0,0,.071.369.35.35,0,0,0,.112.071.336.336,0,0,0,.441-.441.391.391,0,0,0-.071-.112.355.355,0,0,0-.481,0Zm0,0" transform="translate(-5.783 -29.95)" fill="#434343"/>
      <path id="Path_50" data-name="Path 50" d="M16.95,49.319a.365.365,0,0,0-.058-.034.4.4,0,0,0-.065-.017.341.341,0,0,0-.193.017.511.511,0,0,0-.112.075.35.35,0,0,0-.071.112.335.335,0,0,0,.071.369.391.391,0,0,0,.112.071.336.336,0,0,0,.441-.441A.391.391,0,0,0,17,49.36.346.346,0,0,0,16.95,49.319Zm0,0" transform="translate(-9.986 -29.943)" fill="#434343"/>
      <path id="Path_51" data-name="Path 51" d="M23.437,49.366a.35.35,0,0,0-.071.112.283.283,0,0,0-.027.129.336.336,0,0,0,.1.241.391.391,0,0,0,.112.071.335.335,0,0,0,.468-.312.288.288,0,0,0-.027-.129.391.391,0,0,0-.071-.112.355.355,0,0,0-.481,0Zm0,0" transform="translate(-14.188 -29.95)" fill="#434343"/>
    </g>
  </g>
</svg>
