<svg xmlns="http://www.w3.org/2000/svg" xmlns:xlink="http://www.w3.org/1999/xlink" width="20" height="20" viewBox="0 0 20 20">
  <defs>
    <clipPath id="clip-path">
      <rect id="Rectangle_62" data-name="Rectangle 62" width="20" height="20" transform="translate(697 569)" fill="#434343" stroke="#707070" stroke-width="1"/>
    </clipPath>
  </defs>
  <g id="Mask_Group_19" data-name="Mask Group 19" transform="translate(-697 -569)" clip-path="url(#clip-path)">
    <path id="bed" d="M18.968,13.536V8.606a1.226,1.226,0,0,0-1.225-1.225H2.257A1.226,1.226,0,0,0,1.032,8.606v4.93A1.218,1.218,0,0,0,0,14.737v3.051a.386.386,0,0,0,.386.386H.8v1.9a.386.386,0,0,0,.386.386h.7v.743a.386.386,0,0,0,.772,0v-.743H17.347v.743a.386.386,0,0,0,.772,0v-.743h.7a.386.386,0,0,0,.386-.386v-1.9h.413A.386.386,0,0,0,20,17.789V14.737A1.218,1.218,0,0,0,18.968,13.536ZM1.8,8.606a.454.454,0,0,1,.453-.453H17.743a.454.454,0,0,1,.453.453v4.916H16.842c.27-.29.544-.6.828-.922a.386.386,0,0,0,0-.506,31.466,31.466,0,0,0-3.333-3.333.386.386,0,0,0-.506,0A31.465,31.465,0,0,0,10.5,12.094a.386.386,0,0,0,0,.506c.284.327.558.632.828.922H8.675c.27-.29.544-.6.828-.922a.386.386,0,0,0,0-.506A31.475,31.475,0,0,0,6.17,8.761a.386.386,0,0,0-.506,0A31.475,31.475,0,0,0,2.33,12.094a.386.386,0,0,0,0,.506c.284.326.558.632.828.922H1.8Zm10.585,4.916c-.355-.364-.714-.752-1.088-1.175a30.12,30.12,0,0,1,2.782-2.782,30.12,30.12,0,0,1,2.782,2.782c-.374.423-.733.811-1.088,1.175Zm-8.166,0c-.355-.364-.714-.752-1.088-1.175A30.127,30.127,0,0,1,5.917,9.565,30.127,30.127,0,0,1,8.7,12.347c-.374.423-.733.811-1.088,1.175Zm14.207,6.17H1.571V18.174H18.429Zm.8-2.289H.772V14.737a.445.445,0,0,1,.444-.444H18.784a.445.445,0,0,1,.444.444Z" transform="translate(697 564.513)" fill="#434343"/>
  </g>
</svg>
