<svg xmlns="http://www.w3.org/2000/svg" xmlns:xlink="http://www.w3.org/1999/xlink" width="30" height="30" viewBox="0 0 30 30">
  <defs>
    <clipPath id="clip-path">
      <rect id="Rectangle_52" data-name="Rectangle 52" width="30" height="30" transform="translate(611 1170)" fill="#434343" stroke="#707070" stroke-width="1"/>
    </clipPath>
  </defs>
  <g id="Mask_Group_13" data-name="Mask Group 13" transform="translate(-611 -1170)" clip-path="url(#clip-path)">
    <g id="ring-bell" transform="translate(611 1173.867)">
      <path id="Path_69" data-name="Path 69" d="M29.414,18.75H25.84V16.406h3.574A.586.586,0,0,0,30,15.82,13.484,13.484,0,0,0,18.486,2.485,2.688,2.688,0,0,0,15.977,0H14.023a2.688,2.688,0,0,0-2.509,2.485A13.484,13.484,0,0,0,0,15.82a.586.586,0,0,0,.586.586H4.16V18.75H.586A.586.586,0,0,0,0,19.336v1.758a1.173,1.173,0,0,0,1.172,1.172H28.828A1.173,1.173,0,0,0,30,21.094V19.336a.586.586,0,0,0-.586-.586ZM14.023,1.172h1.954a1.442,1.442,0,0,1,1.289,1.172H12.734A1.442,1.442,0,0,1,14.023,1.172ZM1.186,15.234q.028-.594.111-1.172H5.486a.586.586,0,1,0,0-1.172H1.525A12.326,12.326,0,0,1,13.477,3.516h3.047A12.32,12.32,0,0,1,28.814,15.234Zm23.482,1.172V18.75H5.332V16.406Zm4.16,4.687H1.172V19.922H28.828v1.172Zm0,0" fill="#434343"/>
      <path id="Path_70" data-name="Path 70" d="M7.831,14.063a.586.586,0,0,1,0-1.172h0a.586.586,0,0,1,0,1.172Zm0,0" fill="#434343"/>
    </g>
  </g>
</svg>
