<svg xmlns="http://www.w3.org/2000/svg" width="18" height="18" viewBox="0 0 18 18"><defs><style>.a{opacity:0.2;}.b{fill:#4e4e50;}</style></defs><g class="a"><path class="b" d="M14.625,4V5.151a2.25,2.25,0,0,1-4.5,0V4H7.875V5.151a2.25,2.25,0,0,1-4.5,0V4H0V19.75H18V4Zm-9,13.5H3.375V15.25h2.25Zm0-4.5H3.375V10.75h2.25Zm4.5,4.5H7.875V15.25h2.25Zm0-4.5H7.875v-2.25h2.25Zm2.25,4.5V15.25h2.25Zm2.25-4.5h-2.25V10.75h2.25Z" transform="translate(0 -1.75)"/><path class="b" d="M8,3.375V1.125a1.125,1.125,0,0,1,2.25,0v2.25a1.125,1.125,0,0,1-2.25,0Z" transform="translate(-3.5)"/><path class="b" d="M20,3.375V1.125a1.125,1.125,0,0,1,2.25,0v2.25a1.125,1.125,0,0,1-2.25,0Z" transform="translate(-8.75)"/></g></svg>