<svg xmlns="http://www.w3.org/2000/svg" xmlns:xlink="http://www.w3.org/1999/xlink" width="30" height="30" viewBox="0 0 30 30">
  <defs>
    <clipPath id="clip-path">
      <rect id="Rectangle_54" data-name="Rectangle 54" width="30" height="30" transform="translate(355 1230)" fill="#434343" stroke="#707070" stroke-width="1"/>
    </clipPath>
  </defs>
  <g id="Mask_Group_17" data-name="Mask Group 17" transform="translate(-355 -1230)" clip-path="url(#clip-path)">
    <g id="cctv" transform="translate(355 1232.871)">
      <path id="Path_83" data-name="Path 83" d="M29.683,10.618,9.233.065a.586.586,0,0,0-.792.257L6.791,3.588,5.676,5.8a0,0,0,0,0,0,0l-1.1,2.17a.586.586,0,0,0,.26.787l4.426,2.226a3.209,3.209,0,0,0-.158,1,3.261,3.261,0,0,0,2.846,3.228v2.6a2.937,2.937,0,0,1-2.938,2.93H4.7V18.984A.586.586,0,0,0,4.11,18.4H.586A.586.586,0,0,0,0,18.984v4.688a.586.586,0,0,0,.586.586H4.11a.586.586,0,0,0,.586-.586V21.914H9.015a4.11,4.11,0,0,0,4.11-4.1V15.146a3.264,3.264,0,0,0,1.893-1.272l8.473,4.262a.579.579,0,0,0,.263.063.587.587,0,0,0,.524-.322l.289-.573,1.672.841a.587.587,0,0,0,.786-.26L28.13,15.7a.585.585,0,0,0-.26-.787l-1.669-.84.288-.571a.586.586,0,0,0-.26-.788l-.516-.26,3.813-.736a.586.586,0,0,0,.158-1.1ZM3.524,23.086H1.172V19.57H3.524Zm9.009-9.029h-.007l-.051,0h0l-.107,0a2.084,2.084,0,0,1-2.036-2.547l3.62,1.821a2.089,2.089,0,0,1-1.418.72Zm11.248,2.2-.286.566-7.975-4.011-1.084-.545-3.529-1.775L9.822,9.949,5.89,7.972l.573-1.134L11,9.028,13.021,10l.492.237,2.024.977,4.554,2.2a.584.584,0,0,0,.255.059.548.548,0,0,0,.111-.011l3.371-.65,1.351.679-.288.57Zm3.039-.568-.578,1.143-1.147-.577.578-1.143ZM24,11.588l-1.885.364-1.688.326L14.083,9.215l-.614-.3L6.991,5.792l.582-1.153h0L7.76,4.27,11.452,6.1a.585.585,0,0,0,.786-.264.559.559,0,0,0,.049-.141.586.586,0,0,0-.313-.644L8.288,3.223,9.22,1.378l18.423,9.506Zm0,0" fill="#434343"/>
      <path id="Path_84" data-name="Path 84" d="M13.817,7.209a.586.586,0,1,1,0-1.172h0a.586.586,0,0,1,0,1.172Zm0,0" fill="#434343"/>
    </g>
  </g>
</svg>
