<?xml version="1.0" encoding="iso-8859-1"?>
<!-- Generator: Adobe Illustrator 21.0.0, SVG Export Plug-In . SVG Version: 6.00 Build 0)  -->
<svg version="1.1" id="Capa_1" xmlns="http://www.w3.org/2000/svg" xmlns:xlink="http://www.w3.org/1999/xlink" x="0px" y="0px"
	 viewBox="0 0 512 512" style="enable-background:new 0 0 512 512;" xml:space="preserve">
<g>
	<g>
		<g>
			<path d="M442.281,331.486c-4.15-21.159-11.731-41.498-22.443-60.211c-2.176-4.335-4.386-8.721-6.562-13.235
				c-4.881-10.086-10.078-20.011-15.454-29.491c-0.503-0.853-1.417-2.193-2.483-3.661c-0.768-1.058-2.21-3.063-2.825-4.19V42.667
				C392.486,19.114,373.4,0.028,349.848,0H110.931c-0.372,0.048-0.74,0.122-1.101,0.222c-1.024,0-2.039-0.128-3.055,0
				C85.688,2.797,69.528,20.2,68.521,41.421c-0.12,0.407-0.206,0.824-0.256,1.246V435.2c0,14.138,11.461,25.6,25.6,25.6H265.7
				c1.256,15.385,4.233,30.581,8.875,45.303c1.142,3.516,4.418,5.896,8.115,5.897h120.32c4.002,0.003,7.469-2.775,8.337-6.682
				c8.192-36.881,17.425-77.073,25.318-110.276c1.8-7.552,3.652-15.36,5-23.305c1.229-6.885,1.919-13.855,2.065-20.847
				C443.786,344.393,443.301,337.903,442.281,331.486z M264.728,443.733H93.865c-4.713,0-8.533-3.82-8.533-8.533V44.134
				c-0.288-13.534,9.626-25.129,23.04-26.948c7.219-0.747,14.413,1.632,19.763,6.536c5.338,4.854,8.385,11.73,8.397,18.944v324.267
				c0,14.138,11.461,25.6,25.6,25.6h105.643C265.358,409.488,264.34,426.612,264.728,443.733z M220.576,271.343
				c-2.263-2.921-3.889-6.284-4.77-9.873c-0.679-3.43-2.346-6.586-4.796-9.08v-8.397l0.469-0.93
				c1.209-2.404,1.843-5.057,1.852-7.748V223.42c0.005-5.569,4.518-10.082,10.086-10.086h13.961
				c5.569,0.005,10.082,4.518,10.086,10.086v11.895c0.006,2.666,0.628,5.294,1.818,7.68l0.503,1.084l-0.06,8.431
				c-2.425,2.418-4.071,5.505-4.727,8.866c-0.884,3.627-2.524,7.026-4.813,9.976c-1.323,1.84-2.034,4.049-2.031,6.315v7.236
				c-0.013,3.822,1.996,7.367,5.282,9.318l25.856,15.522c2.157,1.264,3.565,3.499,3.772,5.99h-85.333
				c0.205-2.479,1.598-4.705,3.738-5.973l25.745-15.428c3.353-1.938,5.421-5.514,5.427-9.387v-7.236
				C222.64,275.422,221.918,273.194,220.576,271.343z M273.065,273.067v19.055l-17.826-10.701v-1.766
				c3.138-4.552,5.372-9.666,6.579-15.061c3.249-3.234,5.069-7.635,5.052-12.22v-8.269c-0.006-2.665-0.625-5.293-1.809-7.68
				l-0.529-1.109V223.42c-0.019-14.988-12.165-27.134-27.153-27.153h-13.961c-14.988,0.019-27.134,12.165-27.153,27.153v12.015
				l-0.469,0.939c-1.192,2.403-1.814,5.049-1.818,7.731v8.269c0.01,4.66,1.849,9.131,5.12,12.45
				c1.181,5.318,3.387,10.356,6.494,14.831v1.758l-22.852,13.73c-7.466,4.494-12.044,12.56-12.075,21.274v7.851
				c0,4.713,3.82,8.533,8.533,8.533h93.867v33.28c-0.674,2.304-1.468,5.495-2.287,9.387H162.131c-4.713,0-8.533-3.82-8.533-8.533
				V42.667c-0.032-9.245-3.066-18.229-8.644-25.6h204.911c14.138,0,25.6,11.462,25.6,25.6V358.4
				c0.014,5.852-2.997,11.297-7.962,14.396l-0.324,0.213c-2.346,1.435-5.018,2.254-7.765,2.381c-0.34-0.008-0.68,0.018-1.015,0.077
				c-3.441,0.013-6.805-1.023-9.643-2.97c-1.617-1.099-3.019-2.485-4.139-4.087c-1.694-2.286-2.765-4.974-3.106-7.799
				c-0.131-0.729-0.191-1.469-0.179-2.21v-25.6h8.533c4.713,0,8.533-3.82,8.533-8.533s-3.82-8.533-8.533-8.533h-8.533v-42.667
				c0-18.851-15.282-34.133-34.133-34.133S273.065,254.215,273.065,273.067z M424.873,368.922
				c-1.254,7.39-3.038,14.925-4.779,22.187c-7.45,31.292-16.06,68.736-23.893,103.825H289.013
				c-3.809-13.886-6.134-28.137-6.938-42.513c0-0.051,0-0.102,0-0.154c0-0.051-0.051-0.162-0.06-0.256
				c-1.711-27.316,0.703-54.734,7.159-81.331c0.614-1.185,0.941-2.497,0.956-3.831v-42.496v-0.085v-7.851v-0.128v-43.221
				c0.005-6.9,4.164-13.118,10.54-15.757c6.376-2.639,13.713-1.179,18.593,3.7c3.212,3.189,5.013,7.531,5.001,12.058V358.4
				c-0.016,1.694,0.127,3.385,0.427,5.052c1.428,9.364,6.654,17.724,14.447,23.108c5.665,3.899,12.383,5.982,19.26,5.973
				c0.71,0.004,1.419-0.033,2.125-0.111c5.535-0.314,10.906-1.994,15.633-4.89l0.393-0.239c9.942-6.242,15.978-17.155,15.983-28.894
				V254.66c1.835,3.567,3.627,7.177,5.385,10.795c2.219,4.599,4.463,9.071,6.69,13.491c9.831,17.162,16.851,35.787,20.796,55.168
				c0.879,5.491,1.302,11.045,1.263,16.606C426.544,356.825,425.945,362.911,424.873,368.922z"/>
			<path d="M290.131,170.667v-5.675c-0.119-8.957-5.084-17.146-12.971-21.393l-2.304-1.178c4.898-0.218,9.295-3.068,11.494-7.45
				c2.17-4.312,1.697-9.483-1.22-13.329c-6.511-9.869-11.124-20.866-13.602-32.427c-0.604-2.677-0.907-5.413-0.905-8.158
				c-0.015-10.367-4.344-20.26-11.947-27.307c-15.947-14.77-40.578-14.77-56.525,0c-7.603,7.047-11.931,16.94-11.947,27.307
				c0.002,2.736-0.298,5.463-0.896,8.132c-2.478,11.561-7.091,22.557-13.602,32.427c-2.923,3.85-3.4,9.028-1.229,13.346
				c2.201,4.385,6.602,7.235,11.503,7.45l-2.662,1.365c-7.733,4.274-12.567,12.379-12.655,21.214v5.675
				c0,4.713,3.82,8.533,8.533,8.533h102.4C286.311,179.2,290.131,175.38,290.131,170.667z M188.354,162.133
				c0.624-1.392,1.673-2.551,2.995-3.311c0.64-0.324,15.898-8.064,25.02-13.227c4.287-2.38,6.399-7.376,5.12-12.109
				c-1.29-4.805-5.657-8.138-10.633-8.115h-17.246c5.623-10.134,9.761-21.023,12.288-32.333c0.891-3.92,1.341-7.927,1.34-11.947
				c0.032-5.669,2.426-11.068,6.605-14.899c9.475-8.293,23.625-8.293,33.101,0c4.175,3.824,6.571,9.212,6.613,14.874
				c-0.003,4.037,0.449,8.062,1.348,11.998c2.524,11.302,6.66,22.182,12.279,32.307h-17.28c-4.975-0.02-9.34,3.311-10.633,8.115
				c-1.279,4.733,0.833,9.729,5.12,12.109c9.122,5.163,24.38,12.902,24.67,13.039c1.449,0.788,2.613,2.012,3.328,3.499H188.354z"/>
			<path d="M315.731,179.2h34.133c4.713,0,8.533-3.82,8.533-8.533s-3.82-8.533-8.533-8.533h-34.133c-4.713,0-8.533,3.82-8.533,8.533
				S311.018,179.2,315.731,179.2z"/>
		</g>
	</g>
</g>
<g>
</g>
<g>
</g>
<g>
</g>
<g>
</g>
<g>
</g>
<g>
</g>
<g>
</g>
<g>
</g>
<g>
</g>
<g>
</g>
<g>
</g>
<g>
</g>
<g>
</g>
<g>
</g>
<g>
</g>
</svg>
