<svg xmlns="http://www.w3.org/2000/svg" xmlns:xlink="http://www.w3.org/1999/xlink" width="30" height="30" viewBox="0 0 30 30">
  <defs>
    <clipPath id="clip-path">
      <rect id="Rectangle_50" data-name="Rectangle 50" width="30" height="30" transform="translate(121 1196)" fill="#434343" stroke="#707070" stroke-width="1"/>
    </clipPath>
  </defs>
  <g id="Mask_Group_11" data-name="Mask Group 11" transform="translate(-121 -1196)" clip-path="url(#clip-path)">
    <g id="dumbbell" transform="translate(121 1201.625)">
      <path id="Path_62" data-name="Path 62" d="M28.242,6.445h-.586V3.809A2.343,2.343,0,0,0,24.08,1.816,2.347,2.347,0,0,0,21.8,0h0a2.347,2.347,0,0,0-2.344,2.344v4.1h-8.9v-4.1A2.344,2.344,0,0,0,5.92,1.816,2.343,2.343,0,0,0,2.344,3.809V6.445H1.758A1.76,1.76,0,0,0,0,8.2v2.344A1.76,1.76,0,0,0,1.758,12.3h.586v2.637A2.343,2.343,0,0,0,5.92,16.934,2.347,2.347,0,0,0,8.2,18.75h0a2.347,2.347,0,0,0,2.344-2.344V12.3h8.9v4.1a2.344,2.344,0,0,0,4.628.528,2.343,2.343,0,0,0,3.576-1.993V12.3h.586A1.76,1.76,0,0,0,30,10.547V8.2a1.76,1.76,0,0,0-1.758-1.758Zm-25.9,4.687H1.758a.587.587,0,0,1-.586-.586V8.2a.587.587,0,0,1,.586-.586h.586Zm3.516,3.809a1.172,1.172,0,1,1-2.344,0V3.809a1.172,1.172,0,0,1,2.344,0Zm3.516,1.465A1.173,1.173,0,0,1,8.2,17.578h0a1.173,1.173,0,0,1-1.172-1.172V2.344a1.172,1.172,0,0,1,2.344,0ZM19.449,8.789h-4.1a.586.586,0,1,0,0,1.172h4.1v1.172h-8.9V7.617h8.9Zm3.52,7.617a1.172,1.172,0,0,1-2.344,0v-7a.345.345,0,0,1,0,.038V9.307a.345.345,0,0,1,0,.038v-7A1.173,1.173,0,0,1,21.8,1.172h0a1.173,1.173,0,0,1,1.172,1.172Zm3.516-1.465a1.172,1.172,0,1,1-2.344,0V3.809a1.172,1.172,0,1,1,2.344,0Zm2.344-4.395a.587.587,0,0,1-.586.586h-.586V7.617h.586a.587.587,0,0,1,.586.586Zm0,0" transform="translate(0 0)" fill="#434343"/>
      <path id="Path_63" data-name="Path 63" d="M27.916,20.508a.586.586,0,0,1,0-1.172h0a.586.586,0,0,1,0,1.172Zm0,0" transform="translate(-14.907 -10.547)" fill="#434343"/>
    </g>
  </g>
</svg>
