<svg xmlns="http://www.w3.org/2000/svg" xmlns:xlink="http://www.w3.org/1999/xlink" width="30" height="30" viewBox="0 0 30 30">
  <defs>
    <clipPath id="clip-path">
      <rect id="Rectangle_53" data-name="Rectangle 53" width="30" height="30" transform="translate(611 1230)" fill="#434343" stroke="#707070" stroke-width="1"/>
    </clipPath>
  </defs>
  <g id="Mask_Group_18" data-name="Mask Group 18" transform="translate(-611 -1230)" clip-path="url(#clip-path)">
    <g id="vacuum-cleaner" transform="translate(614.252 1230)">
      <path id="Path_85" data-name="Path 85" d="M23.494,18.168a7.112,7.112,0,0,0-7.029-6.9H14.121V6.441a6.445,6.445,0,0,0-12.891,0V24.064L.015,29.281A.586.586,0,0,0,.586,30H6.5a.586.586,0,0,0,.572-.713L5.918,24.068V6.441a1.758,1.758,0,0,1,3.516,0V23.476a3.782,3.782,0,1,0,5.294,5.4h5.136v.538a.586.586,0,1,0,1.172,0v-.538H22.91a.586.586,0,0,0,.586-.586V18.3c0-.044,0-.089,0-.133,0-.024,0,.044,0,0,0-3.756,0,.044,0,0Zm-6.443-5.7A5.924,5.924,0,0,1,22.3,17.726H19.98a2.933,2.933,0,0,1-2.93-2.93ZM1.324,28.828l.957-4.111h2.58l.912,4.111ZM7.676,3.513a2.932,2.932,0,0,0-2.93,2.928v17.1H2.4V6.441a5.273,5.273,0,0,1,10.547,0v4.8H10.605v-4.8a2.93,2.93,0,0,0-2.93-2.928Zm6.349,24.4a2.614,2.614,0,1,1,.624-1.7,3.306,3.306,0,0,1-.778,1.876,2.678,2.678,0,0,1,.26-.306c-.036.041-.071.083-.107.125C13.529,28.494,14.427,27.439,14.025,27.911Zm8.3-.206H21.035V24.718a.586.586,0,0,0-1.172,0V27.7H15.516a3.786,3.786,0,0,0-3.475-5.274,4.063,4.063,0,0,0-1.436.284V12.441h5.273V14.8a4.106,4.106,0,0,0,4.1,4.1h2.344Zm0,0" fill="#434343"/>
      <path id="Path_86" data-name="Path 86" d="M20.45,22.957a.586.586,0,0,1,0-1.172h0a.586.586,0,0,1,0,1.172Zm0,0" fill="#434343"/>
    </g>
  </g>
</svg>
