<svg xmlns="http://www.w3.org/2000/svg" width="72.441" height="52.962" viewBox="0 0 72.441 52.962">
  <g id="add_1_" data-name="add(1)" transform="translate(-7 -74)">
    <path id="Path_87" data-name="Path 87" d="M178.348,156.294a6.277,6.277,0,1,0-6.277-6.277A6.277,6.277,0,0,0,178.348,156.294Zm0-10.228a3.951,3.951,0,1,1-3.951,3.951A3.951,3.951,0,0,1,178.348,146.066Z" transform="translate(-141.078 -59.603)" fill="#e95959"/>
    <path id="Path_88" data-name="Path 88" d="M374.518,301.25H369.43v-5.087a1.163,1.163,0,0,0-2.326,0v5.087h-4.942a1.163,1.163,0,1,0,0,2.326H367.1v4.942a1.163,1.163,0,1,0,2.326,0v-4.942h5.087a1.163,1.163,0,1,0,0-2.326Z" transform="translate(-302.545 -188.877)" fill="#e95959"/>
    <path id="Path_89" data-name="Path 89" d="M74.589,102.944V80.937A6.983,6.983,0,0,0,67.574,74H13.941A6.92,6.92,0,0,0,7,80.937v35.045a6.975,6.975,0,0,0,6.941,7H56.222a13.605,13.605,0,0,0,23.218-9.619A13.788,13.788,0,0,0,74.589,102.944ZM13.941,76.325H67.574a4.655,4.655,0,0,1,4.689,4.611V101.37a13.53,13.53,0,0,0-6.413-1.6,13.821,13.821,0,0,0-1.52.084l-9.742-6.9a1.166,1.166,0,0,0-1.49.119l-13.129,12.9L24.711,98.541a1.128,1.128,0,0,0-1.076.039l-14.31,8.31V80.937a4.592,4.592,0,0,1,4.615-4.611ZM9.326,115.982v-6.4L24.267,100.9l13.951,6.816L25.057,120.658H13.941A4.647,4.647,0,0,1,9.326,115.982Zm19.05,4.676,25.658-25.23,7.251,5.131a13.6,13.6,0,0,0-6.926,20.1Zm37.457,3.965A11.265,11.265,0,1,1,77.1,113.358,11.265,11.265,0,0,1,65.832,124.623Z" transform="translate(0)" fill="#e95959"/>
  </g>
</svg>
