<svg xmlns="http://www.w3.org/2000/svg" width="30" height="30" viewBox="0 0 30 30"><defs><style>.a{fill:#517fa6;fill-rule:evenodd;}</style></defs><path class="a" d="M23.635,15.289v0c.251,0,.5.005.754,0a.612.612,0,0,0,.586-.609V13.231a.616.616,0,0,0-.618-.62H22.916a.617.617,0,0,0-.618.622c0,.478,0,.955,0,1.432a.7.7,0,0,0,.037.213.616.616,0,0,0,.6.412ZM19,15.908a3.091,3.091,0,1,0,3.09,3.159A3.091,3.091,0,0,0,19,15.908Zm-5.977,1.649V17.6q0,3.386,0,6.772a.617.617,0,0,0,.606.6H24.368a.616.616,0,0,0,.608-.606q0-3.382,0-6.764v-.047H23.52a4.773,4.773,0,0,1,.188,2.007,4.661,4.661,0,0,1-.658,1.9,4.741,4.741,0,0,1-6.362,1.673,4.633,4.633,0,0,1-1.842-1.856,4.737,4.737,0,0,1-.37-3.726ZM25.1,26.627c.08-.013.159-.025.237-.042a1.651,1.651,0,0,0,1.254-1.279c.013-.068.022-.136.034-.2V12.9c-.011-.066-.02-.134-.033-.2a1.65,1.65,0,0,0-1.39-1.309c-.029,0-.057-.01-.085-.015H12.88c-.073.014-.148.024-.221.04A1.645,1.645,0,0,0,11.387,12.8c0,.029-.01.057-.015.085V25.12c.014.077.025.156.043.233a1.651,1.651,0,0,0,1.385,1.26l.1.015ZM19,34A15,15,0,1,1,34,19,15,15,0,0,1,19,34Z" transform="translate(-4 -4)"/></svg>