<svg xmlns="http://www.w3.org/2000/svg" xmlns:xlink="http://www.w3.org/1999/xlink" width="30" height="30" viewBox="0 0 30 30">
  <defs>
    <clipPath id="clip-path">
      <rect id="Rectangle_51" data-name="Rectangle 51" width="30" height="30" transform="translate(484 1179)" fill="#434343" stroke="#707070" stroke-width="1"/>
    </clipPath>
  </defs>
  <g id="Mask_Group_12" data-name="Mask Group 12" transform="translate(-484 -1179)" clip-path="url(#clip-path)">
    <g id="parking" transform="translate(486.9 1179)">
      <path id="Path_64" data-name="Path 64" d="M12.1,21.211A9.141,9.141,0,1,1,21.24,12.07,9.151,9.151,0,0,1,12.1,21.211ZM12.1,4.1a7.969,7.969,0,1,0,7.969,7.969A7.978,7.978,0,0,0,12.1,4.1Zm0,0" fill="#434343"/>
      <path id="Path_65" data-name="Path 65" d="M12.1,18.281a6.211,6.211,0,1,1,6.211-6.211A6.218,6.218,0,0,1,12.1,18.281Zm0-11.25a5.039,5.039,0,1,0,5.039,5.039A5.045,5.045,0,0,0,12.1,7.031Zm0,0" fill="#434343"/>
      <path id="Path_66" data-name="Path 66" d="M12.686,8.848H10.342a.586.586,0,0,0-.586.586v5.273a.586.586,0,0,0,1.172,0V12.656h1.758A1.76,1.76,0,0,0,14.443,10.9v-.293A1.76,1.76,0,0,0,12.686,8.848Zm.586,2.051a.587.587,0,0,1-.586.586H10.928V10.02h1.758a.587.587,0,0,1,.586.586Zm0,0" fill="#434343"/>
      <path id="Path_67" data-name="Path 67" d="M12.1,0A12.1,12.1,0,0,0,.029,12.094c0,6.114,6.9,12.99,11.019,17.1l.637.635a.559.559,0,0,0,.087.072l.024.015a.543.543,0,0,0,.1.049l.028.009a.588.588,0,0,0,.348,0l.028-.009a.543.543,0,0,0,.1-.049l.024-.015a.559.559,0,0,0,.087-.072l.84-.837C17.4,24.975,24.17,18.254,24.17,12.094A12.1,12.1,0,0,0,12.1,0Zm.586,28V25.363a.586.586,0,0,0-1.172,0V28a70.4,70.4,0,0,1-6.495-7.2C2.486,17.437,1.2,14.507,1.2,12.094a10.9,10.9,0,1,1,21.8,0C23,17.691,16.617,24.1,12.686,28Zm0,0" fill="#434343"/>
      <path id="Path_68" data-name="Path 68" d="M12.1,23.555a.586.586,0,0,1,0-1.172h0a.586.586,0,1,1,0,1.172Zm0,0" fill="#434343"/>
    </g>
  </g>
</svg>
