<svg xmlns="http://www.w3.org/2000/svg" xmlns:xlink="http://www.w3.org/1999/xlink" width="51" height="51" viewBox="0 0 51 51">
  <defs>
    <clipPath id="clip-path">
      <rect id="Rectangle_48" data-name="Rectangle 48" width="51" height="51" transform="translate(1056 569)" fill="#434343" stroke="#434343" stroke-width="0.3"/>
    </clipPath>
  </defs>
  <g id="Mask_Group_9" data-name="Mask Group 9" transform="translate(-1056 -569)" clip-path="url(#clip-path)">
    <g id="like" transform="translate(1058.837 569)">
      <path id="Path_56" data-name="Path 56" d="M41.678,32.816a3.031,3.031,0,0,0-3.028-3.028H29.61a1.242,1.242,0,0,1-1.237-1.109,8.9,8.9,0,0,1,.514-4.079,12.242,12.242,0,0,0,.784-4.319v-.857a4.91,4.91,0,0,0-4.9-4.9.687.687,0,0,0-.679.583l-.475,3.1a20.566,20.566,0,0,1-3.621,8.862,5.53,5.53,0,0,1-4.461,2.274H13.978v-2.6a.687.687,0,0,0-.687-.687H4.336a.687.687,0,0,0-.687.687V49.652a.687.687,0,0,0,.687.687H13.29a.687.687,0,0,0,.687-.687V47.433h1.379a13.243,13.243,0,0,1,6.988,1.992C24.69,50.879,27.331,51,30.057,51h7.289a3.176,3.176,0,0,0,2.411-5.246,3.186,3.186,0,0,0,.679-5.447,3.262,3.262,0,0,0,.046-5.083,3.024,3.024,0,0,0,1.195-2.408ZM12.6,48.965H5.023V27.425H12.6Zm25.885-7.951a1.815,1.815,0,0,1,0,3.629h-5.08a.687.687,0,1,0,0,1.375h3.938a1.8,1.8,0,1,1,0,3.608H30.057c-2.52,0-4.95-.1-6.987-1.369a14.622,14.622,0,0,0-7.713-2.2h-1.38V30.71h1.554a6.908,6.908,0,0,0,5.576-2.843,21.958,21.958,0,0,0,3.866-9.459l.378-2.465A3.535,3.535,0,0,1,28.3,19.424v.857a10.87,10.87,0,0,1-.7,3.835,10.289,10.289,0,0,0-.593,4.712,2.615,2.615,0,0,0,2.6,2.334H38.65a1.653,1.653,0,1,1,0,3.306H36.5a.737.737,0,0,0-.122.012H34.965a.687.687,0,0,0,0,1.375h3.446a1.892,1.892,0,1,1,0,3.784H34.965a.687.687,0,0,0,0,1.375h3.524Zm0,0" fill="#434343" stroke="#434343" stroke-width="0.3"/>
      <path id="Path_57" data-name="Path 57" d="M15.964,8.006a.688.688,0,0,0,.555.468l3.819.555,1.708,3.461a.687.687,0,0,0,1.233,0l1.708-3.461,3.819-.555A.687.687,0,0,0,29.188,7.3L26.424,4.607,27.076.8a.687.687,0,0,0-1-.724l-3.416,1.8L19.247.079a.687.687,0,0,0-1,.725l.652,3.8L16.138,7.3a.687.687,0,0,0-.174.7ZM20.12,5.34a.686.686,0,0,0,.2-.608L19.84,1.944l2.5,1.316a.685.685,0,0,0,.639,0l2.5-1.316-.478,2.788a.686.686,0,0,0,.2.609l2.025,1.974-2.8.407a.688.688,0,0,0-.518.376l-1.251,2.536L21.411,8.1a.687.687,0,0,0-.517-.376l-2.8-.406Zm0,0" fill="#434343" stroke="#434343" stroke-width="0.3"/>
      <path id="Path_58" data-name="Path 58" d="M.047,14.122a.686.686,0,0,0,.554.468l3.819.556L6.13,18.606a.687.687,0,0,0,1.233,0L9.07,15.145l3.819-.555a.688.688,0,0,0,.381-1.173l-2.763-2.694.652-3.8a.687.687,0,0,0-1-.724l-3.416,1.8-3.416-1.8a.688.688,0,0,0-1,.724l.653,3.8L.221,13.417a.687.687,0,0,0-.174.7ZM4.2,11.455a.688.688,0,0,0,.2-.609L3.923,8.059l2.5,1.316a.686.686,0,0,0,.64,0l2.5-1.316-.478,2.788a.688.688,0,0,0,.2.609l2.025,1.974-2.8.407A.689.689,0,0,0,8,14.212L6.746,16.749,5.494,14.213a.686.686,0,0,0-.518-.376l-2.8-.407Zm0,0" fill="#434343" stroke="#434343" stroke-width="0.3"/>
      <path id="Path_59" data-name="Path 59" d="M45.278,14.122a.687.687,0,0,0-.174-.7l-2.763-2.694.653-3.8A.687.687,0,0,0,42,6.2l-3.416,1.8-3.417-1.8a.687.687,0,0,0-1,.724l.652,3.8-2.763,2.694a.687.687,0,0,0,.381,1.172l3.819.555,1.708,3.461a.687.687,0,0,0,1.233,0L40.9,15.145l3.82-.556a.687.687,0,0,0,.554-.468Zm-4.93-.285a.689.689,0,0,0-.518.376L38.58,16.749l-1.251-2.536a.687.687,0,0,0-.517-.376l-2.8-.407,2.025-1.974a.688.688,0,0,0,.2-.609L35.757,8.06l2.5,1.316a.686.686,0,0,0,.64,0L41.4,8.06l-.478,2.788a.688.688,0,0,0,.2.609l2.025,1.974Zm0,0" fill="#434343" stroke="#434343" stroke-width="0.3"/>
    </g>
  </g>
</svg>
