<svg xmlns="http://www.w3.org/2000/svg" xmlns:xlink="http://www.w3.org/1999/xlink" width="51" height="51" viewBox="0 0 51 51">
  <defs>
    <clipPath id="clip-path">
      <rect id="Rectangle_46" data-name="Rectangle 46" width="51" height="51" transform="translate(821 569)" fill="#434343" stroke="#707070" stroke-width="1"/>
    </clipPath>
  </defs>
  <g id="Mask_Group_8" data-name="Mask Group 8" transform="translate(-821 -569)" clip-path="url(#clip-path)">
    <g id="slumber" transform="translate(821 569)">
      <g id="Group_70" data-name="Group 70">
        <g id="Group_69" data-name="Group 69">
          <path id="Path_52" data-name="Path 52" d="M48.45,23.8c-1.5,0-2.55.669-2.55,1.628V28.35c-1.346-2.66-3.416-4.55-5.95-4.55H16.15a.85.85,0,0,0-.85.85h0v5.107a5.1,5.1,0,1,0-8.871,3.415,2.48,2.48,0,0,0-1.329.571V12.24A2.312,2.312,0,0,0,2.55,10.2,2.312,2.312,0,0,0,0,12.24V48.96A2.312,2.312,0,0,0,2.55,51,2.312,2.312,0,0,0,5.1,48.96V43.35H45.9v6.022c0,.958,1.048,1.628,2.55,1.628S51,50.331,51,49.372V25.428C51,24.469,49.952,23.8,48.45,23.8ZM3.4,48.96c-.009.07-.295.34-.85.34s-.842-.27-.85-.34V12.24c.008-.07.292-.34.85-.34s.841.27.85.34ZM17,25.5H39.95c3.206,0,5.65,4.773,5.924,9.35H17Zm-1.7,4.259v4.1a2.5,2.5,0,0,0-1.338-.674A5.082,5.082,0,0,0,15.3,29.759ZM10.2,26.35a3.4,3.4,0,1,1-3.4,3.4A3.4,3.4,0,0,1,10.2,26.35Zm35.7,15.3H5.1v-5.1a.85.85,0,0,0,.784-.848.835.835,0,0,1,.818-.85h6.865a.835.835,0,0,1,.818.85.85.85,0,0,0,.85.85H45.9Zm3.4,7.5a2.492,2.492,0,0,1-1.7,0v-23.5a2.492,2.492,0,0,1,1.7,0Z" fill="#434343"/>
        </g>
      </g>
      <g id="Group_72" data-name="Group 72">
        <g id="Group_71" data-name="Group 71">
          <path id="Path_53" data-name="Path 53" d="M14.565,18.7l3.089-3.706A.85.85,0,0,0,17,13.6H11.9v1.7h3.285L12.1,19.006A.85.85,0,0,0,12.75,20.4h5.1V18.7Z" fill="#434343"/>
        </g>
      </g>
      <g id="Group_74" data-name="Group 74">
        <g id="Group_73" data-name="Group 73">
          <path id="Path_54" data-name="Path 54" d="M23.838,14.45l4.883-6.278A.85.85,0,0,0,28.05,6.8h-6.8V8.5h5.062l-4.883,6.278A.85.85,0,0,0,22.1,16.15h6.8v-1.7H23.838Z" fill="#434343"/>
        </g>
      </g>
      <g id="Group_76" data-name="Group 76">
        <g id="Group_75" data-name="Group 75">
          <path id="Path_55" data-name="Path 55" d="M34.85,10.2l6.63-8.84A.85.85,0,0,0,40.8,0H33.15V1.7H39.1l-6.63,8.84a.85.85,0,0,0,.68,1.36h8.5V10.2Z" fill="#434343"/>
        </g>
      </g>
    </g>
  </g>
</svg>
