<svg xmlns="http://www.w3.org/2000/svg" width="30" height="30" viewBox="0 0 30 30"><defs><style>.a{fill:#598dca;fill-rule:evenodd;}</style></defs><path class="a" d="M21.083,13.142a3.033,3.033,0,0,0-2.043,3.051l.031.519-.524-.064a8.514,8.514,0,0,1-4.987-2.457L12.87,13.5l-.178.509a3.061,3.061,0,0,0,.649,3.135c.419.445.325.508-.4.243a1.244,1.244,0,0,0-.493-.117,3.806,3.806,0,0,0,.377,1.42,3.384,3.384,0,0,0,1.436,1.356l.514.243-.608.01c-.587,0-.608.01-.545.233a3.169,3.169,0,0,0,1.959,1.737l.649.222-.566.339a5.875,5.875,0,0,1-2.808.784A3.078,3.078,0,0,0,12,23.7a8,8,0,0,0,2.022.932A8.84,8.84,0,0,0,20.9,23.85a9.21,9.21,0,0,0,3.489-4.111,10.926,10.926,0,0,0,.712-3.177c0-.488.031-.551.618-1.134a6.906,6.906,0,0,0,.733-.816c.1-.2.094-.2-.44-.021-.89.318-1.017.276-.576-.2a3.087,3.087,0,0,0,.712-1.134c0-.031-.157.021-.336.116a5.791,5.791,0,0,1-.922.36l-.566.181-.514-.35a4.258,4.258,0,0,0-.89-.466A3.579,3.579,0,0,0,21.083,13.142ZM19,34A15,15,0,1,1,34,19,15,15,0,0,1,19,34Z" transform="translate(-4 -4)"/></svg>