<svg xmlns="http://www.w3.org/2000/svg" xmlns:xlink="http://www.w3.org/1999/xlink" width="30" height="30" viewBox="0 0 30 30">
  <defs>
    <clipPath id="clip-path">
      <rect id="Rectangle_55" data-name="Rectangle 55" width="30" height="30" transform="translate(121 1230)" fill="#434343" stroke="#707070" stroke-width="1"/>
    </clipPath>
  </defs>
  <g id="Mask_Group_16" data-name="Mask Group 16" transform="translate(-121 -1230)" clip-path="url(#clip-path)">
    <g id="wifi" transform="translate(121 1232.695)">
      <path id="Path_78" data-name="Path 78" d="M2.484,9.342a.587.587,0,0,1-.415-.171L.322,7.424A1.1,1.1,0,0,1,.34,5.854a21.283,21.283,0,0,1,29.32,0,1.1,1.1,0,0,1,.018,1.57l-1.392,1.39a1.093,1.093,0,0,1-1.531.02A17.12,17.12,0,0,0,2.9,9.171a.586.586,0,0,1-.414.171ZM1.2,6.649,2.49,7.935a18.292,18.292,0,0,1,25.018,0L28.8,6.649a20.112,20.112,0,0,0-27.591,0Zm0,0" fill="#434343"/>
      <path id="Path_79" data-name="Path 79" d="M23.279,13.366a1.09,1.09,0,0,1-.74-.29,11.079,11.079,0,0,0-5.653-2.78.586.586,0,1,1,.2-1.155,12.25,12.25,0,0,1,6.194,3.023l1.287-1.286a14.13,14.13,0,0,0-19.129,0l1.287,1.286A12.312,12.312,0,0,1,12.1,9.309a.586.586,0,1,1,.275,1.139,11.135,11.135,0,0,0-4.915,2.629,1.093,1.093,0,0,1-1.517-.033L4.553,11.652a1.087,1.087,0,0,1-.321-.8,1.106,1.106,0,0,1,.351-.786,15.3,15.3,0,0,1,20.836,0,1.107,1.107,0,0,1,.351.786,1.088,1.088,0,0,1-.321.8l-1.392,1.391a1.1,1.1,0,0,1-.777.323Zm0,0" fill="#434343"/>
      <path id="Path_80" data-name="Path 80" d="M19.047,17.6a1.1,1.1,0,0,1-.714-.265,5.157,5.157,0,0,0-6.666,0,1.089,1.089,0,0,1-1.484-.056l-1.4-1.4a1.1,1.1,0,0,1,.046-1.6,9.32,9.32,0,0,1,12.337,0,1.1,1.1,0,0,1,.046,1.6l-1.4,1.4a1.085,1.085,0,0,1-.77.321ZM15,14.943A6.33,6.33,0,0,1,19.04,16.4l1.29-1.289a8.148,8.148,0,0,0-10.659,0L10.96,16.4A6.329,6.329,0,0,1,15,14.943Zm0,0" fill="#434343"/>
      <path id="Path_81" data-name="Path 81" d="M15,24.609a3.339,3.339,0,1,1,3.34-3.339A3.343,3.343,0,0,1,15,24.609ZM15,19.1a2.167,2.167,0,1,0,1.533.634A2.154,2.154,0,0,0,15,19.1Zm0,0" fill="#434343"/>
      <path id="Path_82" data-name="Path 82" d="M14.642,10.134a.586.586,0,1,1,0-1.172h0a.586.586,0,1,1,0,1.172Zm0,0" fill="#434343"/>
    </g>
  </g>
</svg>
